<svg width="640" height="430" viewBox="0 0 640 430" fill="none" xmlns="http://www.w3.org/2000/svg">
<g clip-path="url(#clip0_17_2246)">
<path d="M39.2836 429.809C39.2836 429.809 -39.3479 328.24 25.9859 218.277C83.9541 120.71 151.54 127.379 201.126 166.973C222.245 183.836 283.135 169.051 334.959 69.773C405.634 -65.615 650.619 16.4981 605.951 224.796C584.334 325.597 671.738 329.261 627.203 430.023L39.2836 429.809Z" fill="#83060E"/>
<path d="M258.113 107.04C224.833 135.24 180.574 139.599 159.258 116.775C137.942 93.9514 147.64 52.5886 180.92 24.3883C214.199 -3.81202 258.458 -8.17063 279.774 14.653C301.09 37.4765 291.392 78.8397 258.113 107.04V107.04Z" fill="#83060E"/>
<path d="M89.7723 108.885C80.6264 99.0926 79.2129 86.0694 86.615 79.7969C94.017 73.5245 107.432 76.3784 116.578 86.171C125.724 95.9635 127.137 108.987 119.735 115.259C112.333 121.532 98.9182 118.678 89.7723 108.885Z" fill="#83060E"/>
<path d="M599.943 69.4775C596.912 56.6925 602.29 44.6432 611.954 42.5649C621.618 40.4865 631.909 49.1656 634.939 61.9508C637.97 74.7358 632.592 86.7848 622.929 88.8632C613.265 90.9418 602.974 82.2624 599.943 69.4775Z" fill="#83060E"/>
<path d="M92.9072 429.828C93.7313 427.774 101.814 409.212 125.29 407.919C150.144 406.551 163.955 388.16 189.638 392.462C215.321 396.763 217.25 414.822 228.064 419.805C238.877 424.788 293.302 413.34 313.947 418.769C334.592 424.198 344.265 410.685 363.467 404.841C382.669 398.997 395.265 407.009 409.079 416.126C422.895 425.244 442.232 415.1 441.385 429.588L210.764 429.871L92.9072 429.828V429.828Z" fill="#199793"/>
<path d="M402.3 383.69L402.165 389.397L401.218 429.173C401.212 429.421 401 429.619 400.74 429.619C400.292 429.619 399.924 429.282 399.907 428.856L398.371 391.196L398.066 383.69H402.3V383.69Z" fill="#FF9F23"/>
<path d="M402.3 383.69L402.165 389.397C400.971 389.776 399.559 390.351 398.371 391.196L398.066 383.69H402.3V383.69Z" fill="#EE8914"/>
<path d="M211.917 383.69L211.782 389.397L210.836 429.173C210.83 429.421 210.617 429.619 210.357 429.619C209.909 429.619 209.541 429.282 209.524 428.856L207.989 391.196L207.684 383.69H211.917V383.69Z" fill="#FF9F23"/>
<path d="M211.917 383.69L211.782 389.397C210.588 389.776 209.177 390.351 207.989 391.196L207.684 383.69H211.917V383.69Z" fill="#EE8914"/>
<path d="M412.594 385.604H197.39C196.166 385.604 195.165 384.651 195.165 383.485V371.225C195.165 370.06 196.166 369.106 197.39 369.106H412.594C413.818 369.106 414.819 370.06 414.819 371.225V383.485C414.819 384.651 413.818 385.604 412.594 385.604Z" fill="#FF9F23"/>
<path d="M634.181 411.729H562.72V365.772H639.11C641 378.635 640.06 393.388 634.181 411.729Z" fill="#09605D"/>
<path d="M579.652 402.49C579.652 387.507 592.404 375.362 608.133 375.362C623.863 375.362 636.614 387.507 636.614 402.49C636.614 402.763 636.609 403.036 636.6 403.307C635.55 407.451 634.244 411.779 632.633 416.329C627.669 424.286 618.555 429.619 608.133 429.619C592.404 429.619 579.652 417.473 579.652 402.49V402.49Z" fill="#032D2B"/>
<path d="M623.075 402.492C623.075 405.661 621.986 408.589 620.146 410.952C617.428 414.455 613.059 416.723 608.134 416.723C599.882 416.723 593.19 410.352 593.19 402.492C593.19 396.389 597.221 391.185 602.882 389.161C604.516 388.577 606.286 388.258 608.134 388.258C616.387 388.258 623.075 394.629 623.075 402.492V402.492Z" fill="#FFC637"/>
<path d="M605.015 229.277L507.17 211.991C506.585 211.991 505.965 211.991 505.381 212.027C505.271 212.027 505.125 212.061 505.016 212.061C504.761 212.061 504.541 212.097 504.322 212.097H504.286C504.177 212.131 504.067 212.131 503.957 212.131C503.811 212.166 503.665 212.166 503.556 212.2C502.461 212.304 501.366 212.513 500.27 212.757C500.124 212.792 499.979 212.827 499.833 212.861C499.796 212.896 499.76 212.896 499.723 212.896C499.504 212.966 499.285 213 499.103 213.069L498.665 213.174C498.446 213.244 498.226 213.313 498.008 213.383C497.789 213.452 497.569 213.522 497.35 213.591C497.241 213.626 497.131 213.696 496.985 213.73C496.766 213.799 496.511 213.905 496.255 214.008C496.073 214.078 495.854 214.147 495.671 214.252C495.343 214.356 495.051 214.496 494.722 214.635C494.54 214.738 494.357 214.808 494.138 214.912C494.028 214.982 493.883 215.017 493.773 215.086C493.518 215.225 493.298 215.33 493.079 215.434C492.86 215.573 492.641 215.677 492.423 215.816C492.203 215.921 492.021 216.025 491.802 216.164C491.765 216.199 491.729 216.199 491.693 216.234C491.473 216.338 491.291 216.477 491.108 216.581C490.926 216.72 490.744 216.825 490.56 216.964C490.378 217.068 490.196 217.173 490.013 217.312C489.904 217.382 489.794 217.485 489.648 217.555C489.174 217.903 488.699 218.285 488.261 218.668C488.152 218.737 488.042 218.807 487.969 218.877C487.823 219.015 487.677 219.12 487.567 219.224C487.422 219.363 487.276 219.467 487.129 219.607L486.326 220.371C486.181 220.511 486.035 220.65 485.925 220.789C485.742 220.927 485.596 221.102 485.45 221.241C485.377 221.345 485.268 221.449 485.158 221.553C484.976 221.797 484.794 222.005 484.611 222.214C484.501 222.319 484.428 222.422 484.319 222.527C484.246 222.666 484.136 222.771 484.063 222.875C483.881 223.118 483.698 223.327 483.516 223.57C483.443 223.674 483.37 223.779 483.297 223.918C483.187 224.023 483.114 224.127 483.041 224.266C482.895 224.439 482.749 224.648 482.603 224.857C482.603 224.891 482.603 224.891 482.567 224.891C482.53 224.996 482.457 225.066 482.421 225.169C482.311 225.308 482.238 225.448 482.128 225.587C482.056 225.726 481.983 225.796 481.946 225.935C481.909 225.935 481.909 225.969 481.909 225.969C481.873 226.074 481.8 226.177 481.727 226.282C481.617 226.456 481.508 226.665 481.399 226.838C481.289 227.082 481.143 227.325 481.034 227.569C480.924 227.777 480.814 227.986 480.742 228.195C480.668 228.299 480.632 228.403 480.559 228.507C480.523 228.646 480.486 228.751 480.413 228.855C480.304 229.099 480.23 229.308 480.12 229.551C480.048 229.759 479.938 229.968 479.865 230.211C479.829 230.315 479.756 230.454 479.719 230.593C479.683 230.698 479.646 230.802 479.61 230.907C479.574 230.976 479.574 231.046 479.537 231.115C479.5 231.22 479.464 231.358 479.427 231.463C479.354 231.637 479.318 231.811 479.245 231.984C479.208 232.123 479.172 232.262 479.136 232.402C479.099 232.541 479.062 232.645 479.026 232.784C478.624 234.14 478.259 235.531 477.858 236.992C477.785 237.235 477.712 237.478 477.639 237.722C477.201 239.251 476.763 240.815 476.325 242.415C476.215 242.728 476.142 243.076 476.033 243.423C475.996 243.598 475.96 243.737 475.923 243.876C475.777 244.362 475.631 244.85 475.522 245.336C475.376 245.823 475.229 246.344 475.083 246.831C475.083 246.9 475.047 246.97 475.011 247.075C474.974 247.318 474.901 247.562 474.828 247.805C474.755 248.013 474.719 248.187 474.682 248.361C474.536 248.813 474.426 249.23 474.317 249.682C474.135 250.274 473.988 250.865 473.806 251.455C473.696 251.908 473.55 252.394 473.441 252.881C473.039 254.307 472.637 255.767 472.236 257.228C472.054 257.958 471.871 258.653 471.652 259.383C471.47 260.113 471.251 260.844 471.068 261.574C470.886 262.304 470.667 263.034 470.484 263.764C470.301 264.425 470.156 265.085 469.973 265.746C469.462 267.659 468.951 269.57 468.477 271.448C468.294 272.178 468.111 272.874 467.929 273.57C467.856 273.813 467.819 274.056 467.746 274.265C467.564 274.995 467.382 275.69 467.199 276.385C467.162 276.524 467.162 276.629 467.126 276.768C466.98 277.324 466.834 277.881 466.688 278.437C466.615 278.681 466.579 278.923 466.505 279.132C466.359 279.759 466.213 280.35 466.067 280.94C465.994 281.323 465.885 281.671 465.812 282.018C465.629 282.644 465.483 283.236 465.337 283.861C465.337 283.896 465.337 283.966 465.3 284.001C465.228 284.348 465.155 284.696 465.081 285.008C465.045 285.078 465.045 285.113 465.045 285.183C464.972 285.461 464.899 285.739 464.826 286.017C464.754 286.33 464.68 286.678 464.607 286.99C464.425 287.652 464.279 288.277 464.133 288.938C464.096 289.077 464.059 289.251 464.023 289.424C463.841 290.19 463.658 290.989 463.476 291.754C463.439 292.032 463.366 292.31 463.293 292.589C463.293 292.658 463.256 292.728 463.256 292.797C463.184 293.04 463.147 293.318 463.074 293.562C463.038 293.667 463.038 293.77 463.001 293.875C462.928 294.257 462.855 294.64 462.745 295.022V295.057C462.709 295.301 462.636 295.509 462.599 295.752C462.454 296.483 462.308 297.177 462.161 297.874C461.395 301.49 460.811 304.654 460.482 307.192C458.694 319.987 458 334.208 457.817 347.977C457.781 353.888 457.817 359.695 457.927 365.222C457.963 367.726 458.037 370.161 458.11 372.525C458.328 379.27 458.62 385.494 458.913 390.918C459.095 394.082 459.314 396.933 459.46 399.471C459.971 406.39 465.958 411.746 473.222 411.746H573.97C573.934 411.641 573.934 411.536 573.897 411.432C573.058 408.581 572.656 405.591 572.656 402.496C572.656 389.493 580.358 378.192 591.674 372.525C596.456 370.126 601.858 368.769 607.59 368.665C613.685 368.595 619.453 369.987 624.491 372.525C630.896 375.725 636.168 380.72 639.544 386.803C645.446 326.454 589.969 309.388 605.015 229.277Z" fill="#199793"/>
<path d="M522.673 378.644H505.073C503.307 378.644 501.862 377.268 501.862 375.586C501.862 373.904 503.307 372.528 505.073 372.528H522.673C524.439 372.528 525.884 373.904 525.884 375.586C525.884 377.268 524.439 378.644 522.673 378.644Z" fill="#FFC22A"/>
<path d="M465.406 390.927H457.284C455.811 390.927 454.605 389.779 454.605 388.376V367.787C454.605 366.384 455.811 365.236 457.284 365.236H465.406C466.879 365.236 468.085 366.384 468.085 367.787V388.376C468.085 389.779 466.879 390.927 465.406 390.927Z" fill="#FFC22A"/>
<path d="M608.327 211.976H507.161C506.568 211.976 505.976 211.992 505.389 212.027C505.259 212.035 505.129 212.046 504.999 212.054C504.776 212.07 504.554 212.086 504.33 212.108C504.311 212.108 504.291 212.111 504.271 212.113C504.164 212.124 504.059 212.132 503.952 212.145H503.941C503.811 212.159 503.678 212.175 503.549 212.191C502.442 212.32 501.353 212.514 500.283 212.761C500.131 212.796 499.979 212.834 499.826 212.871C499.787 212.879 499.749 212.89 499.71 212.901C499.504 212.952 499.298 213.008 499.092 213.065C498.951 213.103 498.81 213.143 498.672 213.183C498.452 213.248 498.228 213.315 498.008 213.385C497.789 213.455 497.568 213.528 497.351 213.602C497.232 213.64 497.114 213.681 496.998 213.726C496.756 213.812 496.513 213.901 496.273 213.995C496.066 214.073 495.864 214.154 495.66 214.237C495.347 214.366 495.037 214.5 494.729 214.64C494.534 214.726 494.339 214.818 494.147 214.909C494.018 214.971 493.891 215.033 493.761 215.098C493.532 215.21 493.307 215.326 493.081 215.447C492.855 215.565 492.632 215.686 492.412 215.81L492.409 215.812C492.209 215.925 492.008 216.041 491.808 216.159C491.763 216.186 491.718 216.213 491.675 216.24C491.483 216.353 491.292 216.471 491.102 216.592C490.919 216.708 490.736 216.826 490.555 216.947C490.374 217.068 490.196 217.189 490.019 217.312C489.9 217.396 489.784 217.479 489.666 217.562C489.18 217.912 488.706 218.275 488.244 218.654C488.15 218.729 488.057 218.807 487.964 218.888C487.826 219.003 487.688 219.121 487.552 219.24C487.414 219.358 487.278 219.476 487.145 219.6C486.866 219.853 486.59 220.111 486.322 220.374C486.183 220.512 486.045 220.651 485.906 220.791C485.757 220.944 485.61 221.097 485.466 221.253C485.367 221.358 485.272 221.463 485.176 221.571C484.978 221.783 484.789 221.998 484.609 222.216C484.515 222.323 484.422 222.434 484.332 222.544C484.239 222.654 484.149 222.767 484.061 222.877C483.88 223.103 483.702 223.331 483.53 223.563C483.445 223.676 483.361 223.788 483.279 223.904C483.195 224.019 483.111 224.133 483.03 224.25C480.397 224.339 477.373 224.608 474.26 225.226C462.657 227.528 455.328 233.626 452.982 242.892L451.57 242.764C449.687 242.593 447.976 243.812 447.617 245.581L441.409 276.118C440.997 278.144 442.507 280.068 444.664 280.264L453.61 281.077C455.629 281.261 457.421 279.851 457.614 277.928L460.703 247.108C460.888 245.258 459.525 243.612 457.624 243.326C459.647 234.975 464.711 228.709 475.283 226.595C477.617 226.129 479.876 225.955 481.928 225.948C481.926 225.951 481.924 225.954 481.922 225.958C481.856 226.063 481.795 226.17 481.735 226.278C481.625 226.466 481.518 226.657 481.413 226.848C481.284 227.084 481.157 227.321 481.035 227.56C480.931 227.764 480.829 227.972 480.731 228.178C480.677 228.292 480.623 228.404 480.573 228.517C480.519 228.633 480.468 228.745 480.417 228.861C480.316 229.09 480.217 229.321 480.121 229.552C480.033 229.767 479.949 229.982 479.864 230.2C479.816 230.332 479.765 230.464 479.72 230.595C479.681 230.7 479.644 230.805 479.608 230.912C479.585 230.977 479.562 231.039 479.539 231.104C479.5 231.222 479.46 231.342 479.421 231.461C479.365 231.633 479.311 231.802 479.261 231.977C479.215 232.122 479.173 232.27 479.13 232.418C479.099 232.539 479.063 232.66 479.029 232.784C478.642 234.144 478.247 235.547 477.84 236.991C477.773 237.23 477.705 237.472 477.637 237.714C477.205 239.238 476.768 240.803 476.322 242.399C476.226 242.744 476.13 243.09 476.032 243.44C476.006 243.531 475.978 243.623 475.952 243.717C475.882 243.972 475.811 244.23 475.737 244.488C475.659 244.773 475.58 245.058 475.504 245.343C475.368 245.835 475.23 246.33 475.091 246.827C475.072 246.902 475.05 246.98 475.027 247.058C474.945 247.351 474.863 247.644 474.784 247.937C474.744 248.08 474.705 248.22 474.669 248.362C474.547 248.798 474.428 249.233 474.307 249.671C474.307 249.679 474.304 249.685 474.301 249.69C474.141 250.276 473.977 250.865 473.816 251.456H602.494C602.764 243.357 603.826 234.534 605.914 224.796C606.842 220.468 607.645 216.195 608.327 211.976V211.976ZM602.807 265.112V297.874H610.679C606.817 288.202 603.833 277.573 602.807 265.112Z" fill="#09605D"/>
<path d="M604.404 232.784H479.025C478.624 234.14 478.259 235.531 477.858 236.992C477.784 237.235 477.711 237.478 477.638 237.722C477.201 239.251 476.763 240.815 476.324 242.415C476.215 242.728 476.142 243.076 476.033 243.424C475.996 243.598 475.96 243.737 475.923 243.876C475.777 244.362 475.631 244.85 475.521 245.336C475.375 245.823 475.229 246.344 475.083 246.831C475.083 246.9 475.047 246.97 475.01 247.075C474.974 247.318 474.901 247.562 474.828 247.805C474.755 248.013 474.719 248.187 474.682 248.361C474.536 248.813 474.426 249.23 474.317 249.682C474.134 250.274 473.988 250.865 473.806 251.455C473.696 251.908 473.55 252.394 473.441 252.881C473.039 254.307 472.637 255.767 472.236 257.228C472.054 257.958 471.871 258.653 471.652 259.383C471.469 260.113 471.25 260.844 471.068 261.574C470.885 262.304 470.666 263.034 470.484 263.764C470.301 264.425 470.155 265.085 469.973 265.746C469.462 267.659 468.951 269.57 468.476 271.448C468.294 272.178 468.111 272.874 467.929 273.57C467.856 273.813 467.819 274.056 467.746 274.265C467.564 274.995 467.381 275.69 467.199 276.385C467.162 276.524 467.162 276.629 467.125 276.768C466.98 277.324 466.834 277.881 466.688 278.437C466.614 278.681 466.578 278.923 466.505 279.132C466.359 279.759 466.213 280.35 466.067 280.94C465.994 281.323 465.884 281.671 465.811 282.018C465.629 282.644 465.483 283.236 465.337 283.861C465.337 283.896 465.337 283.966 465.3 284.001C465.227 284.348 465.154 284.696 465.081 285.008C465.045 285.078 465.045 285.113 465.045 285.183C464.972 285.461 464.899 285.739 464.826 286.017C464.754 286.33 464.68 286.678 464.607 286.99C464.425 287.652 464.279 288.277 464.133 288.938C464.096 289.077 464.059 289.251 464.023 289.424C463.84 290.19 463.658 290.989 463.476 291.754C463.439 292.032 463.366 292.31 463.293 292.589C463.293 292.658 463.256 292.728 463.256 292.797C463.183 293.04 463.147 293.318 463.074 293.562C463.037 293.667 463.037 293.77 463.001 293.875C462.928 294.257 462.855 294.64 462.745 295.022V295.057C462.709 295.301 462.636 295.509 462.599 295.753C462.453 296.483 462.307 297.178 462.161 297.874L472.893 297.908H476.945L499.066 297.943L526.406 297.978H531.298L610.776 298.115C603.894 280.969 599.753 260.818 604.404 232.784V232.784Z" fill="white"/>
<path d="M534.547 248.251C534.741 245.269 532.254 242.748 529.116 242.748H504.257C488.256 242.748 477.236 254.822 475.284 270.345L469.513 337.776C469.315 340.084 471.229 342.062 473.661 342.062H524.618C526.766 342.062 528.544 340.471 528.676 338.428L534.547 248.251V248.251Z" fill="#09605D"/>
<path d="M529.683 252.537L525.433 311.851L523.946 332.605C523.946 335.277 521.673 337.441 518.871 337.441H479.165C472.191 337.441 474.265 327.588 474.827 321.37L479.215 272.621C479.215 271.68 479.266 270.75 479.368 269.834C480.72 257.371 491.052 247.679 503.597 247.679H518.482C521.501 247.679 529.683 247.679 529.683 252.537V252.537Z" fill="#4AC6F0"/>
<path d="M623.075 402.492C623.075 405.661 621.986 408.589 620.146 410.952C603.557 406.594 602.459 394.629 602.882 389.161C604.516 388.577 606.286 388.258 608.134 388.258C616.387 388.258 623.075 394.629 623.075 402.492Z" fill="#FF9F23"/>
<path d="M525.433 311.851L523.946 332.605C523.946 335.277 521.674 337.441 518.871 337.441H479.165C472.191 337.441 474.265 327.588 474.827 321.37L479.215 272.621C479.215 271.68 479.266 270.75 479.368 269.834C486.288 285.194 500.148 306.249 525.433 311.851V311.851Z" fill="#41B8E1"/>
<path d="M607.682 289.549H592.562C589.744 289.549 587.438 287.353 587.438 284.669V246.371C587.438 243.687 589.744 241.491 592.562 241.491H603.208C601.129 260.814 603.407 276.199 607.682 289.549V289.549Z" fill="#41B8E1"/>
<path d="M574.445 289.549H540.509C538.555 289.549 536.957 288.027 536.957 286.166V244.874C536.957 243.013 538.555 241.491 540.509 241.491H574.445C576.399 241.491 577.997 243.013 577.997 244.874V286.166C577.997 288.027 576.399 289.549 574.445 289.549Z" fill="#41B8E1"/>
<path d="M312.653 275.597C311.272 273.6 305.791 274.717 300.409 278.093C295.028 281.469 291.785 285.824 293.166 287.821C294.546 289.818 300.028 288.7 305.409 285.325C310.79 281.949 314.033 277.593 312.653 275.597Z" fill="#583D76"/>
<path d="M284.541 349.793L285.603 349.854C285.593 349.831 286.016 332.181 287.641 325.04C290.67 311.735 298.585 301.32 298.672 301.231L296.77 300.65C296.676 300.746 295.175 302.961 293.049 307.047C291.091 310.813 287.941 317.085 286.55 324.391C285.177 331.605 284.501 349.698 284.541 349.793Z" fill="#583D76"/>
<path d="M303.742 275.44C303.742 275.44 296.797 274.029 293.464 279.409C290.131 284.788 289.946 294.137 287.724 297.194C285.502 300.252 281.582 313.155 285.748 316.043C289.915 318.931 315.582 315.937 317.023 314.62C318.463 313.304 316.936 299.752 314.428 295.827C311.92 291.902 318.031 273.441 303.742 275.44Z" fill="#FF4A1E"/>
<path d="M315.552 340.717C310.657 325.814 316.177 316.974 315.646 309.517C315.248 303.934 316.385 303.793 315.365 302.259C314.327 300.699 308.62 299.727 308.096 299.682C307.689 299.478 307.592 297.737 307.597 296.027C307.602 293.973 307.767 291.794 307.767 291.794L300.497 290.423L300.065 290.342C300.083 295.157 298.753 298.32 297.788 299.06C296.885 299.149 293.007 299.565 290.617 300.419C289.718 300.74 289.031 301.123 288.791 301.573C286.795 305.325 284.802 314.793 283.401 321.547C282.62 325.311 282.024 328.233 281.714 328.853C280.847 330.58 278.198 340.085 275.936 344.776L278.431 344.868C278.431 344.868 288.358 331.999 289.225 328.482C289.499 327.37 290.162 325.174 290.941 322.696C292.659 327.195 293.544 329.087 293.501 330.838C293.444 333.107 291.83 335.145 288.455 342.356C286.59 346.34 320.55 355.939 315.552 340.717V340.717Z" fill="#FFCCB2"/>
<path d="M296.976 411.547C297.455 413.36 297.982 415.086 298.518 416.692C298.633 417.037 298.747 417.375 298.862 417.706C298.92 417.871 298.977 418.034 299.033 418.195C299.146 418.513 299.257 418.825 299.369 419.129C299.514 419.527 299.659 419.915 299.802 420.289C299.907 420.568 300.012 420.84 300.115 421.107C301.709 425.177 303.044 427.757 303.044 427.757L306.219 427.548C306.219 427.548 305.027 422.148 304.788 414.412C304.78 414.135 304.772 413.857 304.766 413.575C304.754 412.975 304.747 412.364 304.747 411.74C304.747 411.484 304.749 411.225 304.751 410.964C304.814 404.3 305.68 396.426 308.444 388.908C310.691 382.796 312.32 377.077 313.498 371.909C317.301 355.226 316.406 344.265 316.406 344.265L298.546 346.256L297.714 346.348C297.638 354.162 297.428 364.771 297.243 373.065C297.211 374.505 297.181 375.875 297.151 377.149C297.028 382.474 296.935 386.115 296.935 386.115C293.5 393.159 294.747 403.101 296.976 411.547V411.547Z" fill="#FFCCB2"/>
<path d="M307.767 291.794C307.767 291.794 307.602 293.974 307.597 296.027C303.529 295.917 301.378 292.382 300.497 290.423L307.767 291.794Z" fill="#FFBB98"/>
<path d="M318.86 334.24C318.86 334.24 318.013 345.486 318.296 346.828C318.578 348.17 318.203 352.961 316.274 353.843C314.344 354.725 310.535 331.57 318.86 334.24Z" fill="#FFCCB2"/>
<path d="M309.126 293.738C309.126 293.738 299.5 293.889 299.494 288.178C299.487 282.467 298.24 278.64 304.385 278.302C310.531 277.964 311.728 280.142 312.217 282.048C312.706 283.954 311.629 293.552 309.126 293.738Z" fill="#FFCCB2"/>
<path d="M308.77 278.162C308.77 278.162 306.134 284.862 302.09 285.853C298.045 286.844 296.291 285.812 296.291 285.812C296.291 285.812 299.394 283.464 300.037 279.366C300.037 279.366 306.782 274.973 308.77 278.162V278.162Z" fill="#FF4A1E"/>
<path d="M308.116 278.706C308.116 278.706 310.084 280.202 310.564 281.656C311.044 283.111 311.26 286.104 312.176 286.003C312.176 286.003 314.162 281.448 311.93 278.872C309.564 276.14 308.116 278.706 308.116 278.706V278.706Z" fill="#FF4A1E"/>
<path d="M315.504 302.44C315.504 302.44 322.812 332.104 320.554 334.621C318.296 337.139 312.51 337.542 311.664 337.005C310.817 336.467 315.504 302.44 315.504 302.44Z" fill="#C8D1CE"/>
<path d="M308.482 278.932C308.482 278.932 306.604 285.949 301.501 288.196C301.501 288.196 306.604 283.885 307.037 279.254C307.471 274.621 308.482 278.932 308.482 278.932Z" fill="#FF4A1E"/>
<path d="M286.731 410.082C287.758 420.52 292.28 427.272 292.28 427.272L293.824 428.61C293.824 428.61 295.23 420.967 296.245 412.216C297.213 403.899 298.54 395.098 300.04 392.411C302.283 388.397 303.936 380.188 305.126 371.515C307.093 357.163 307.79 341.538 307.79 341.538L289.681 340.682C287.86 343.599 287.067 348.383 286.878 353.822C286.68 359.54 287.153 365.984 287.808 371.742C288.724 379.804 290 386.523 290.296 388.034C290.296 388.035 290.295 388.037 290.297 388.042C290.337 388.24 290.276 388.439 290.178 388.618C286.574 395.412 286.054 403.184 286.731 410.082V410.082Z" fill="#FFCCB2"/>
<path d="M313.947 407.905C298.351 413.488 274.884 407.023 274.884 407.023C274.884 407.023 275.748 402.404 277.017 395.695C280.206 378.855 285.947 348.844 286.958 345.661C288.369 341.214 293.5 330.837 293.5 330.837C295.904 331.601 298.393 331.999 300.767 332.168C307.619 332.66 313.498 331.257 313.498 331.257C313.498 331.257 314.455 334.308 316.498 340.682C318.542 347.059 313.947 407.905 313.947 407.905Z" fill="#FF7042"/>
<path d="M316.416 313.881C315.637 321.216 313.498 331.166 313.498 331.166C312.318 331.76 311.116 332.197 309.917 332.506C301.639 334.648 293.502 330.749 293.502 330.749C293.502 330.749 293.489 330.522 293.469 330.248C293.452 330.021 293.428 329.766 293.401 329.578C293.34 329.163 291.375 324.71 291.375 324.71C291.375 324.71 291.301 325.057 291.171 325.648C290.452 328.902 287.988 339.6 286.477 340.564C285.601 341.12 282.799 341.128 280.17 340.446C277.432 339.737 274.885 338.278 274.885 335.906C274.885 332.868 280.682 319.134 284.86 309.724C284.862 309.713 284.864 309.709 284.864 309.709C287.088 304.692 288.38 301.202 290.081 300.812C290.081 300.812 301.524 305.248 307.863 304.567C310.041 304.334 314.037 302.582 315.263 302.146C315.298 302.181 315.333 302.218 315.365 302.255C315.391 302.283 315.415 302.313 315.437 302.343C315.461 302.375 315.483 302.408 315.504 302.44C316.432 303.743 316.286 305.906 316.333 306.731C316.426 308.343 316.764 310.598 316.416 313.881V313.881Z" fill="#EAEAEA"/>
<path d="M291.374 324.783C291.374 324.783 293.339 329.249 293.4 329.665C293.428 329.852 293.452 330.11 293.47 330.337C294.42 331.075 295.568 331.635 296.738 331.974C300.062 332.933 301.506 326.864 301.308 323.837C301.109 320.809 296.408 312.166 294.843 311.987C293.279 311.809 291.374 324.783 291.374 324.783V324.783Z" fill="#C8D1CE"/>
<path d="M291.171 325.721C291.3 325.129 291.374 324.783 291.374 324.783C291.27 325.102 291.203 325.415 291.171 325.721Z" fill="#F3AF91"/>
<path d="M304.894 333.192C310.961 333.192 313.369 331.57 313.553 331.435L313.946 328.713C313.888 328.754 305.746 333.411 293.147 328.951L293.414 331.013C298.26 332.728 301.742 333.192 304.894 333.192Z" fill="#FF4A1E"/>
<path d="M274.885 336.01C274.885 338.391 277.434 339.854 280.169 340.565C276.399 336.288 284.649 310.41 284.86 309.75C280.684 319.189 274.885 332.965 274.885 336.01V336.01Z" fill="#C8D1CE"/>
<path d="M305.224 429.906C305.44 429.885 305.631 429.888 305.799 429.906L315.478 429.909C315.465 429.583 315.327 429.168 315.192 428.833C315.055 428.492 314.756 428.233 314.386 428.131C313.473 427.88 311.673 427.655 310.025 426.234C309.098 425.436 305.547 423.3 305.547 423.3L305.529 423.295C305.451 423.297 305.08 423.406 303.465 424.704C302.63 425.374 301.207 423.758 301.207 423.758C301.207 423.758 300.94 423.968 300.741 424.36C300.58 424.67 300.464 425.095 300.556 425.619C300.685 426.358 300.27 427.731 299.939 428.66C299.738 429.223 299.569 429.622 299.569 429.622C299.569 429.622 299.542 429.751 299.774 429.904L305.224 429.906V429.906Z" fill="#4A2C76"/>
<path d="M300.741 424.36C301.225 424.685 302.247 425.325 302.924 425.408C303.838 425.523 305.548 423.3 305.548 423.3L305.529 423.295C305.451 423.297 305.08 423.406 303.465 424.704C302.631 425.374 301.208 423.758 301.208 423.758C301.208 423.758 300.941 423.968 300.741 424.36V424.36Z" fill="#FFC637"/>
<path d="M305.224 429.906C305.44 429.885 305.631 429.888 305.799 429.906L308.032 429.907C307.633 429.869 307.362 429.825 307.292 429.777C306.895 429.502 305.703 429.02 304.042 429.399C302.597 429.727 300.466 428.884 299.939 428.66C299.738 429.223 299.569 429.622 299.569 429.622C299.569 429.622 299.542 429.751 299.774 429.904L305.224 429.906V429.906ZM315.478 429.909C315.465 429.583 315.327 429.168 315.192 428.833C314.954 428.631 314.872 429.591 314.75 429.909L315.478 429.909Z" fill="#FFC637"/>
<path d="M294.455 429.902C294.636 429.887 294.799 429.889 294.944 429.902L304.664 429.905C304.65 429.579 304.513 429.166 304.378 428.833C304.24 428.492 303.941 428.233 303.572 428.131C302.659 427.88 300.859 427.655 299.211 426.234C298.284 425.436 294.734 423.3 294.734 423.3L294.715 423.295C294.637 423.297 294.266 423.406 292.651 424.704C291.816 425.374 290.394 423.758 290.394 423.758C290.394 423.758 290.126 423.968 289.927 424.36C289.766 424.67 289.65 425.095 289.742 425.619C289.871 426.358 289.456 427.731 289.125 428.66C288.924 429.223 288.756 429.622 288.756 429.622C288.756 429.622 288.729 429.749 288.955 429.9L294.455 429.902V429.902Z" fill="#4A2C76"/>
<path d="M289.928 424.36C290.412 424.685 291.433 425.325 292.11 425.408C293.024 425.523 294.735 423.3 294.735 423.3L294.716 423.295C294.638 423.297 294.266 423.406 292.652 424.704C291.817 425.374 290.394 423.758 290.394 423.758C290.394 423.758 290.127 423.968 289.928 424.36Z" fill="#FFC637"/>
<path d="M294.455 429.902C294.636 429.887 294.799 429.889 294.944 429.902L297.177 429.903C296.8 429.866 296.546 429.823 296.478 429.777C296.081 429.502 294.89 429.02 293.229 429.399C291.783 429.727 289.652 428.884 289.125 428.66C288.924 429.223 288.756 429.622 288.756 429.622C288.756 429.622 288.729 429.749 288.955 429.9L294.455 429.902V429.902ZM304.664 429.905C304.65 429.579 304.513 429.166 304.378 428.833C304.141 428.632 304.058 429.584 303.937 429.905L304.664 429.905Z" fill="#FFC637"/>
<path d="M277.018 395.695C280.206 378.855 285.947 348.844 286.958 345.661C288.369 341.214 293.5 330.837 293.5 330.837C295.904 331.601 298.393 331.999 300.767 332.168C301.041 335.8 303.047 372.097 277.018 395.695V395.695Z" fill="#FF4A1E"/>
<path d="M301.325 349.875L300.264 349.799C300.276 349.777 302.34 332.083 301.734 324.737C300.605 311.05 294.227 299.622 294.153 299.522L296.119 299.186C296.199 299.294 297.375 301.701 298.907 306.059C300.318 310.074 302.557 316.748 302.907 324.228C303.253 331.615 301.378 349.785 301.325 349.875Z" fill="#583D76"/>
<path d="M288.464 345.99C288.464 345.99 289.495 343.573 291.135 342.969L299.505 344.472C299.505 344.472 297.439 346.345 297.244 347.566L288.464 345.99Z" fill="#9C82D5"/>
<path d="M298.974 359.633L284.667 357.065C283.994 356.944 283.552 356.327 283.679 355.687L285.466 346.652C285.593 346.012 286.241 345.591 286.913 345.712L301.22 348.28C301.892 348.401 302.335 349.017 302.208 349.658L300.42 358.692C300.294 359.333 299.646 359.754 298.974 359.633V359.633Z" fill="#583D76"/>
<path d="M293.747 349.384L286.905 349.327L286.982 340.973L293.824 341.03L293.747 349.384Z" fill="#F3AF91"/>
<path d="M293.355 349.381L286.514 349.324L286.591 340.97L293.432 341.027L293.355 349.381Z" fill="#EAEAEA"/>
<path d="M292.264 352.653L286.831 348.692L292.162 342.057L297.594 346.019L292.264 352.653Z" fill="#EE8914"/>
<path d="M291.657 352.21L286.224 348.249L291.554 341.615L296.987 345.576L291.657 352.21Z" fill="#F2A54D"/>
<path d="M295.478 359.006L281.779 356.547C280.939 356.396 280.386 355.625 280.545 354.824L282.217 346.369C282.376 345.569 283.185 345.042 284.026 345.193L297.725 347.652C298.565 347.804 299.117 348.574 298.959 349.375L297.286 357.83C297.128 358.63 296.318 359.157 295.478 359.006Z" fill="#56309E"/>
<path d="M292.24 282.863C292.24 282.863 287.861 274.56 293.981 271.278C300.1 267.996 304.58 269.285 307.946 273.299L292.24 282.863Z" fill="#4A2C76"/>
<path d="M316.894 272.386C315.634 270.464 311.227 270.774 305.909 272.849C303.83 273.658 301.615 274.74 299.393 276.059C296.628 277.701 294.221 279.498 292.332 281.257C288.81 284.538 287.091 287.678 288.232 289.42C288.582 289.951 289.104 290.295 289.889 290.495C290.669 288.895 292.907 287.396 293.541 286.15C294.437 284.388 296.702 281.195 300.848 278.731C304.033 276.839 307.201 275.726 309.381 275.591C310.649 275.514 311.585 275.766 311.996 276.394C312.316 276.884 312.283 277.548 311.951 278.315C312.262 278.812 312.614 279.514 312.905 280.446C316.353 277.204 318.023 274.11 316.894 272.386V272.386Z" fill="#56309E"/>
<path d="M275.936 344.776C275.936 344.776 273.563 347.087 273.187 347.355C272.811 347.623 272.374 350.012 272.716 350.266C273.399 350.773 273.896 349.603 274.974 349.021C276.053 348.438 276.668 347.623 276.668 347.892C276.668 348.161 275.301 349.191 275.468 349.415C275.636 349.639 277.491 348.407 277.915 348.138C278.337 347.869 278.432 344.868 278.432 344.868L275.936 344.776V344.776Z" fill="#FFCCB2"/>
<path d="M254.013 288.729L254.586 288.691L255.283 286.551C257.967 280.215 255.567 277.905 253.903 276.835C251.812 275.489 249.588 275.281 249.588 275.281C248.349 275.111 247.285 275.162 246.371 275.37C246.367 275.37 246.36 275.37 246.36 275.37C236.342 273.404 235.385 290.994 236.875 292.066C238.365 293.138 241.974 293.015 241.974 293.015C241.775 292.828 241.56 292.413 241.56 292.413C242.652 293.265 245.881 292.963 245.881 292.963C244.623 291.681 244.222 290.455 244.25 289.383L246.865 289.208C247.529 290.826 248.557 292.413 249.496 293.089C251.224 294.334 254.685 294.022 254.685 294.022C254.523 293.856 254.399 293.336 254.399 293.336C254.523 293.667 255.152 293.896 255.152 293.896C255.583 293.896 256.475 293.477 256.475 293.477C256.475 293.477 254.439 293.471 254.013 288.729V288.729Z" fill="#4A2C6A"/>
<path d="M258.229 334.065C266.087 332.16 274.724 320.549 274.724 320.549L272.512 318.721C270.221 321.293 260.697 325.724 260.697 325.724C260.748 323.369 260.683 321.222 260.527 319.268C259.471 305.986 254.214 301.562 252.779 300.59C252.548 300.433 252.415 300.367 252.415 300.367C252.415 300.367 252.409 300.463 252.401 300.646C252.38 301.041 252.342 301.836 252.304 302.927C252.012 311.056 251.664 335.658 258.229 334.065Z" fill="#FFCCB2"/>
<path d="M272.511 318.721C272.543 318.407 272.765 313.844 273.717 312.976C274.669 312.107 276.548 310.924 277.087 311.019C277.627 311.115 279.461 314.02 278.595 316.022C277.729 318.023 274.723 320.549 274.723 320.549L272.511 318.721V318.721Z" fill="#FFCCB2"/>
<path d="M270.559 319.252L275.734 319.458C275.906 319.465 276.05 319.338 276.058 319.174L276.471 309.775C276.478 309.611 276.344 309.473 276.173 309.467L270.998 309.26C270.826 309.254 270.681 309.38 270.674 309.544L270.261 318.943C270.254 319.106 270.387 319.245 270.559 319.252V319.252Z" fill="#4A2C6A"/>
<path d="M271.849 319.303L276.651 319.494C276.926 319.505 277.158 319.302 277.169 319.04L277.566 309.997C277.578 309.735 277.365 309.514 277.089 309.503L272.288 309.312C272.013 309.301 271.781 309.504 271.77 309.766L271.373 318.809C271.361 319.071 271.574 319.292 271.849 319.303V319.303Z" fill="#7C409C"/>
<path d="M277.48 311.368C277.48 311.368 276.07 309.868 274.659 311.014C273.248 312.161 274.752 314.609 275.976 315.278C277.2 315.947 277.593 316.296 277.593 316.296L277.48 311.368V311.368Z" fill="#FFCCB2"/>
<path d="M241.119 411.285C241.598 413.098 242.124 414.824 242.661 416.43C242.776 416.775 242.889 417.113 243.005 417.445C243.062 417.609 243.12 417.772 243.175 417.933C243.288 418.251 243.4 418.563 243.511 418.868C243.656 419.265 243.801 419.653 243.944 420.028C244.049 420.306 244.155 420.578 244.258 420.845C245.852 424.916 247.187 427.495 247.187 427.495L250.361 427.287C250.361 427.287 249.169 421.886 248.931 414.15C248.923 413.874 248.915 413.596 248.909 413.313C248.897 412.714 248.889 412.103 248.889 411.478C248.889 411.223 248.891 410.963 248.893 410.702C248.956 404.039 249.823 396.165 252.586 388.646C254.833 382.534 256.463 376.815 257.641 371.647C261.443 354.964 260.549 344.003 260.549 344.003L242.689 345.994L241.856 346.087C241.781 353.9 241.57 364.509 241.386 372.803C241.353 374.243 241.324 375.613 241.294 376.887C241.171 382.212 241.077 385.853 241.077 385.853C237.642 392.896 238.89 402.839 241.119 411.285V411.285Z" fill="#F2AC8C"/>
<path d="M232.597 342.094C235.972 334.884 237.587 332.845 237.643 330.576C237.688 328.782 236.759 326.846 234.955 322.1C234.531 320.981 234.237 319.831 234.057 318.669C232.63 309.518 238.186 299.627 241.638 298.953C242.599 298.711 244.227 295.406 244.207 290.08L244.64 290.161L251.91 291.532C251.91 291.532 251.744 293.712 251.74 295.765C251.735 297.476 251.832 299.216 252.238 299.421C252.762 299.466 253.238 299.557 253.238 299.557C253.238 299.557 259.391 303.672 259.788 309.255C260.319 316.712 254.8 325.551 259.694 340.456C264.692 355.678 230.732 346.079 232.597 342.094V342.094Z" fill="#FFCCB2"/>
<path d="M251.911 291.532C251.911 291.532 251.745 293.712 251.741 295.765C247.672 295.656 245.522 292.12 244.641 290.161L251.911 291.532Z" fill="#FFBB98"/>
<path d="M253.269 293.476C253.269 293.476 243.643 293.627 243.636 287.916C243.63 282.205 242.383 278.378 248.529 278.04C254.674 277.702 255.87 279.88 256.36 281.786C256.848 283.692 255.772 293.29 253.269 293.476V293.476Z" fill="#FFCCB2"/>
<path d="M252.913 277.9C252.913 277.9 250.277 284.601 246.232 285.591C242.188 286.582 240.434 285.55 240.434 285.55C240.434 285.55 243.536 283.202 244.179 279.105C244.179 279.105 250.924 274.711 252.913 277.9V277.9Z" fill="#4A2C6A"/>
<path d="M252.26 278.444C252.26 278.444 254.228 279.94 254.708 281.394C255.188 282.849 255.404 285.843 256.32 285.741C256.32 285.741 258.306 281.187 256.074 278.611C253.708 275.879 252.26 278.444 252.26 278.444Z" fill="#4A2C6A"/>
<path d="M220.078 349.753L222.968 350.579C222.968 350.579 232.5 335.513 233.367 331.593C233.65 330.317 234.343 327.763 235.152 324.902C236.826 318.977 238.986 311.726 238.986 311.726L239.697 308.79L242.124 298.781C242.124 298.781 237.478 299.233 234.76 300.316C233.86 300.673 233.174 301.1 232.934 301.601C230.937 305.783 228.944 316.336 227.543 323.863C226.762 328.059 226.167 331.316 225.856 332.006C224.989 333.931 222.341 344.525 220.078 349.753V349.753Z" fill="#FFCCB2"/>
<path d="M252.625 278.671C252.625 278.671 250.748 285.687 245.645 287.934C245.645 287.934 250.748 283.624 251.181 278.992C251.614 274.36 252.625 278.671 252.625 278.671Z" fill="#4A2C6A"/>
<path d="M230.874 409.82C231.901 420.258 236.423 427.011 236.423 427.011L237.966 428.349C237.966 428.349 239.373 420.705 240.388 411.955C241.355 403.638 242.683 394.836 244.183 392.149C246.426 388.135 248.079 379.926 249.269 371.254C251.235 356.902 251.933 341.276 251.933 341.276L233.824 340.421C232.002 343.337 231.209 348.121 231.021 353.56C230.822 359.279 231.295 365.722 231.95 371.48C232.866 379.542 234.142 386.262 234.438 387.772C234.438 387.774 234.438 387.776 234.44 387.78C234.479 387.978 234.418 388.177 234.321 388.357C230.717 395.15 230.197 402.923 230.874 409.82V409.82Z" fill="#FFB792"/>
<path d="M252.006 318.125C252.413 327.6 253.901 336.982 258.232 336.379C263.541 335.641 264.924 330.921 265.206 327.412C265.38 325.229 265.128 323.514 265.128 323.514C265.128 323.514 262.516 323.503 262.093 323.132C260.086 321.367 260.682 304.051 259.689 302.254C258.696 300.456 252.25 299.301 252.25 299.301C252.25 299.301 251.601 308.759 252.006 318.125Z" fill="#FF7042"/>
<path d="M252.007 318.125C252.414 327.6 253.902 336.982 258.233 336.379C263.542 335.641 264.924 330.921 265.206 327.412C263.903 327.35 261.608 327.047 260.697 325.722C259.391 323.826 255.318 311.621 255.318 311.621C255.318 311.621 253.717 314.361 252.007 318.125Z" fill="#FF4A1E"/>
<path d="M241.119 411.285C241.598 413.098 242.124 414.824 242.661 416.43C242.776 416.775 242.889 417.113 243.005 417.445C243.062 417.609 243.12 417.772 243.175 417.933C243.288 418.251 243.4 418.563 243.511 418.868C243.656 419.265 243.801 419.653 243.944 420.028C244.049 420.306 244.155 420.578 244.258 420.845C245.852 424.916 247.187 427.495 247.187 427.495L250.361 427.287C250.361 427.287 249.169 421.886 248.931 414.15C248.923 413.874 248.915 413.596 248.909 413.313C248.897 412.714 248.889 412.103 248.889 411.478C248.889 411.223 248.891 410.963 248.893 410.702C248.956 404.039 249.823 396.165 252.586 388.646C254.833 382.534 256.463 376.815 257.641 371.647C255.753 372.018 254.092 371.639 249.268 371.254C248.762 371.213 246.338 374.071 243.944 377.854C243.821 383.179 241.077 385.853 241.077 385.853C237.642 392.896 238.89 402.839 241.119 411.285V411.285Z" fill="#4A2C76"/>
<path d="M230.874 409.82C231.901 420.258 236.423 427.011 236.423 427.011L237.966 428.349C237.966 428.349 239.373 420.705 240.388 411.955C241.355 403.638 242.683 394.836 244.183 392.149C246.426 388.135 248.079 379.926 249.269 371.254C247.602 371.914 241.93 373.631 231.95 371.48C232.866 379.542 234.142 386.262 234.438 387.772C234.438 387.774 234.438 387.776 234.44 387.78C234.479 387.978 234.418 388.177 234.321 388.357C230.717 395.15 230.197 402.923 230.874 409.82V409.82Z" fill="#56309E"/>
<path d="M227.405 359.025C227.405 359.025 231.194 360.14 236.775 360.875C243.686 361.785 253.347 362.113 261.974 359.025C261.974 359.025 262.685 346.796 260.641 340.422C258.597 334.045 257.641 330.996 257.641 330.996C257.641 330.996 249.451 332.952 241.132 331.435C239.964 331.223 238.794 330.941 237.644 330.576C237.644 330.576 232.512 340.953 231.101 345.399C229.691 349.846 227.405 359.025 227.405 359.025V359.025Z" fill="#74DAEE"/>
<path d="M227.405 359.025C227.405 359.025 231.194 360.14 236.775 360.875C247.01 355.347 242.019 332.086 242.019 332.086C241.716 331.851 241.42 331.634 241.132 331.435C239.964 331.223 238.794 330.941 237.644 330.576C237.644 330.576 232.512 340.953 231.101 345.399C229.691 349.846 227.405 359.025 227.405 359.025V359.025Z" fill="#41B8E1"/>
<path d="M219.027 335.748C219.027 338.129 221.576 339.592 224.312 340.304C226.942 340.989 229.743 340.979 230.62 340.421C232.131 339.456 234.595 328.726 235.314 325.46C235.443 324.867 235.517 324.521 235.517 324.521C235.517 324.521 237.482 328.987 237.543 329.403C237.571 329.591 237.595 329.848 237.613 330.075C237.633 330.35 237.645 330.577 237.645 330.577C237.645 330.577 248.307 335.703 257.641 330.995C257.641 330.995 261.436 310.107 259.788 306.511C258.97 304.725 254.7 301.038 252.992 299.449C252.608 299.091 252.646 298.383 252.796 297.736C252.919 297.189 252.402 296.709 251.834 296.849C250.735 297.121 248.758 297.074 246.641 296.412C245.585 296.084 244.497 295.603 243.466 294.934C243.166 294.739 242.759 294.918 242.713 295.261C242.552 296.506 242.157 298.781 241.435 298.781C240.442 298.775 233.664 299.568 233.167 300.367C232.994 300.645 231.232 304.443 229.007 309.475C229.007 309.475 229.005 309.478 229.002 309.488C224.827 318.927 219.027 332.704 219.027 335.748V335.748Z" fill="#FF7448"/>
<path d="M235.517 324.521C235.517 324.521 237.481 328.987 237.543 329.403C237.571 329.591 237.595 329.848 237.612 330.075C238.562 330.814 239.71 331.373 240.881 331.712C244.204 332.671 245.649 326.603 245.45 323.575C245.252 320.547 240.551 311.904 238.985 311.725C237.422 311.547 235.517 324.521 235.517 324.521V324.521Z" fill="#FF4A1E"/>
<path d="M235.314 325.46C235.444 324.867 235.517 324.521 235.517 324.521C235.414 324.841 235.346 325.153 235.314 325.46Z" fill="#F3AF91"/>
<path d="M248.943 333.297C255.01 333.297 257.511 331.309 257.697 331.173L258.089 328.451C258.031 328.492 249.89 333.149 237.29 328.689L237.557 330.751C242.402 332.466 245.791 333.297 248.943 333.297V333.297Z" fill="#41B8E1"/>
<path d="M219.027 335.748C219.027 338.129 221.576 339.592 224.312 340.304C220.541 336.027 228.792 310.148 229.002 309.488C224.827 318.927 219.027 332.704 219.027 335.748V335.748Z" fill="#FF4A1E"/>
<path d="M241.436 298.781C241.436 298.781 246.512 301.843 250.352 301.118C250.352 301.118 251.274 300.563 250.002 300.005C248.808 299.483 246.031 297.937 246.641 296.412C245.586 296.084 244.497 295.604 243.466 294.934C243.166 294.739 242.759 294.918 242.713 295.261C242.552 296.506 242.157 298.781 241.436 298.781Z" fill="#FF4A1E"/>
<path d="M248.118 429.885C248.483 429.799 248.836 429.708 249.262 429.655C250.006 429.562 250.468 429.74 250.71 429.886L259.601 429.889C259.683 429.55 259.507 428.996 259.335 428.571C259.198 428.23 258.899 427.972 258.529 427.87C257.616 427.618 255.816 427.394 254.168 425.972C253.241 425.175 249.691 423.038 249.691 423.038L249.672 423.034C249.594 423.035 249.223 423.144 247.608 424.443C246.773 425.112 245.351 423.496 245.351 423.496C245.351 423.496 245.083 423.707 244.884 424.099C244.724 424.408 244.607 424.833 244.699 425.357C244.828 426.096 244.413 427.469 244.082 428.398C243.882 428.961 243.713 429.36 243.713 429.36C243.713 429.36 243.651 429.658 244.527 429.884L248.118 429.885V429.885Z" fill="#4A2C76"/>
<path d="M244.884 424.099C245.368 424.423 246.389 425.063 247.066 425.147C247.98 425.261 249.691 423.038 249.691 423.038L249.672 423.034C249.594 423.035 249.223 423.144 247.608 424.443C246.773 425.112 245.35 423.496 245.35 423.496C245.35 423.496 245.083 423.706 244.884 424.099V424.099Z" fill="#FFC637"/>
<path d="M248.118 429.885C248.483 429.799 248.836 429.708 249.262 429.655C250.006 429.562 250.468 429.74 250.71 429.886L259.601 429.889C259.683 429.55 259.507 428.996 259.335 428.571C259.073 428.35 259 429.533 258.855 429.721C258.711 429.91 251.833 429.79 251.436 429.515C251.038 429.24 249.847 428.759 248.186 429.137C246.74 429.466 244.609 428.622 244.082 428.398C243.882 428.961 243.713 429.36 243.713 429.36C243.713 429.36 243.651 429.658 244.527 429.884L248.118 429.885V429.885Z" fill="#FFC637"/>
<path d="M237.321 429.881C237.68 429.796 238.029 429.708 238.448 429.655C239.186 429.563 239.646 429.736 239.889 429.882L248.788 429.885C248.867 429.546 248.692 428.995 248.521 428.571C248.384 428.23 248.085 427.972 247.715 427.87C246.802 427.618 245.002 427.394 243.354 425.972C242.427 425.175 238.877 423.038 238.877 423.038L238.858 423.034C238.78 423.035 238.409 423.144 236.794 424.443C235.959 425.112 234.537 423.496 234.537 423.496C234.537 423.496 234.269 423.707 234.07 424.099C233.91 424.408 233.793 424.833 233.885 425.357C234.014 426.096 233.599 427.469 233.268 428.398C233.067 428.961 232.898 429.36 232.898 429.36C232.898 429.36 232.837 429.655 233.697 429.88L237.321 429.881V429.881Z" fill="#4A2C76"/>
<path d="M234.07 424.099C234.554 424.423 235.576 425.063 236.253 425.147C237.167 425.261 238.877 423.038 238.877 423.038L238.858 423.034C238.78 423.035 238.409 423.144 236.794 424.443C235.96 425.112 234.537 423.496 234.537 423.496C234.537 423.496 234.27 423.706 234.07 424.099V424.099Z" fill="#FFC637"/>
<path d="M237.321 429.881C237.68 429.796 238.029 429.708 238.448 429.655C239.186 429.563 239.646 429.736 239.889 429.882L248.788 429.885C248.867 429.546 248.692 428.995 248.521 428.571C248.259 428.35 248.186 429.533 248.041 429.721C247.897 429.91 241.019 429.79 240.621 429.515C240.224 429.24 239.033 428.759 237.372 429.137C235.926 429.466 233.795 428.622 233.268 428.398C233.067 428.961 232.898 429.36 232.898 429.36C232.898 429.36 232.837 429.655 233.697 429.88L237.321 429.881Z" fill="#FFC637"/>
<path d="M212.918 361.483C213.118 360.524 213.826 359.745 214.788 359.405C216.348 358.854 218.902 358.357 222.043 359.236C227.344 360.721 227.862 363.824 227.512 366.056C227.161 368.288 228.2 371.847 228.048 374.378C227.895 376.909 227.134 383.269 223.209 382.935C219.284 382.601 206.632 379.362 206.632 379.362C206.632 379.362 204.446 375.399 208.936 369.66C211.599 366.256 212.569 363.154 212.918 361.483V361.483Z" fill="#41B8E1"/>
<path d="M215.348 358.557L216.397 358.647C216.398 358.646 216.518 357.956 217 357.521C217.371 357.189 217.883 357.067 218.522 357.167C219.127 357.259 219.561 357.523 219.782 357.949C220.092 358.547 219.921 359.318 219.918 359.326L220.942 359.552C220.954 359.499 221.25 358.246 220.714 357.193C220.346 356.466 219.686 356.046 218.775 355.883C217.834 355.74 217.039 355.958 216.41 356.534C215.543 357.327 215.355 358.508 215.348 358.557V358.557Z" fill="#41B8E1"/>
<path d="M204.031 378.796C204.031 378.796 216.684 382.043 220.612 382.37C224.538 382.71 225.302 376.351 225.445 373.811C225.6 371.287 224.565 367.727 224.91 365.49C224.981 365.067 225.021 364.597 224.989 364.125C224.888 362.134 223.717 359.872 219.449 358.678C216.299 357.794 213.753 358.298 212.186 358.849C211.23 359.19 210.514 359.966 210.316 360.922C210.269 361.117 210.227 361.354 210.172 361.588C209.721 363.365 208.678 366.122 206.333 369.104C201.841 374.836 204.031 378.796 204.031 378.796Z" fill="#EAEAEA"/>
<path d="M223.535 374.345C223.535 374.345 221.776 375.961 219.398 375.391C217.021 374.822 215.909 372.701 215.909 372.701L223.535 374.345Z" fill="#74DAEE"/>
<path d="M214.36 372.368C214.36 372.368 212.601 373.983 210.223 373.414C207.846 372.845 206.734 370.724 206.734 370.724L214.36 372.368Z" fill="#74DAEE"/>
<path d="M210.316 360.922C210.269 361.117 210.227 361.354 210.172 361.588C211.18 363.57 213.091 366.102 216.326 366.689C221.826 367.711 224.99 364.125 224.99 364.125C224.888 362.134 223.717 359.872 219.449 358.678C216.3 357.794 213.753 358.299 212.186 358.849C211.229 359.19 210.514 359.966 210.316 360.922V360.922Z" fill="#74DAEE"/>
<path d="M216.248 367.787C216.592 367.861 216.938 367.654 217.016 367.326L217.145 366.784C217.222 366.456 217.005 366.127 216.66 366.053C216.316 365.978 215.97 366.186 215.893 366.514L215.764 367.056C215.686 367.384 215.904 367.713 216.248 367.787V367.787Z" fill="#41B8E1"/>
<path d="M220.283 349.295C220.283 349.295 219.405 351.266 218.49 351.817C217.575 352.367 216.706 353.688 216.516 354.752C216.167 356.705 217.739 357.916 218.894 357.916C220.05 357.916 221.154 356.416 221.834 352.832C221.871 352.634 222.968 350.579 222.968 350.579L220.283 349.295V349.295Z" fill="#FFCCB2"/>
<path d="M391.813 429.619L392.532 356.332C392.532 356.332 393.152 351.054 397.986 351.054C403.144 351.054 403.441 356.332 403.441 356.332C403.441 356.332 403.367 356.788 402.837 356.788C402.283 356.788 402.192 356.332 402.192 356.332C402.192 356.332 401.963 352.263 397.986 352.263C394.259 352.263 393.781 356.332 393.781 356.332V429.619H391.813V429.619Z" fill="#4A2C76"/>
<path d="M394.444 429.619H391.235L391.521 426.423C391.521 426.423 391.494 425.98 392.142 425.955C392.744 425.931 393.934 425.849 394.047 426.196C394.146 426.501 394.444 429.619 394.444 429.619V429.619Z" fill="#583D76"/>
<path d="M398.026 347.17L398.245 348.218C398.245 348.218 403.685 348.199 404.957 353.751C404.957 353.751 405.302 356.061 403.553 355.568C401.804 355.075 402.076 353.896 399.6 353.25C397.123 352.604 395.51 352.109 395.134 350.392L394.729 348.481L398.026 347.17V347.17Z" fill="#FFCCB2"/>
<path d="M378.791 301.73C378.791 301.73 380.23 307.122 381.471 312.053C381.971 314.039 382.438 315.949 382.768 317.402C383.104 318.894 383.295 319.904 383.221 320.017C382.142 321.685 384.114 331.859 385.673 335.553C385.81 335.881 386 336.265 386.227 336.69C388.408 340.762 394.213 348.754 394.213 348.754C394.213 348.754 395.851 348.917 396.922 348.533C397.816 348.21 398.427 347.169 398.427 347.169C397.907 346.373 395.807 336.971 393.104 331.699C391.948 329.444 390.245 308.52 388.005 305.703C386.137 303.353 378.791 301.73 378.791 301.73V301.73Z" fill="#FF7448"/>
<path d="M383.221 320.017C382.142 321.685 384.114 331.859 385.673 335.553C385.81 335.881 386 336.264 386.227 336.69C388.311 327.91 384.858 315.472 384.858 315.472C383.996 315.797 383.308 316.474 382.768 317.402C383.104 318.894 383.294 319.905 383.221 320.017V320.017Z" fill="#FF4A1E"/>
<path d="M368.122 421.546C368.122 421.546 367.568 429.493 369.143 429.604C369.353 429.619 377.134 429.619 377.134 429.619L387.171 429.619C387.171 429.619 387.002 427.285 384.098 426.802C381.195 426.321 376.335 424.377 374.576 420.722C372.726 416.876 368.122 421.546 368.122 421.546Z" fill="#4A2C76"/>
<path d="M353.026 421.546C353.026 421.546 352.472 429.493 354.047 429.604C354.257 429.619 362.038 429.619 362.038 429.619L372.075 429.619C372.075 429.619 371.906 427.285 369.003 426.802C366.099 426.321 361.239 424.377 359.481 420.722C357.63 416.876 353.026 421.546 353.026 421.546Z" fill="#533771"/>
<path d="M367.647 402.392C367.4 405.753 366.896 410.074 367.075 413.969C367.327 419.415 367.508 424.008 367.508 424.008C371.277 425.229 378.194 423.748 378.194 423.748C378.194 423.748 380.648 409.984 382.669 398.997C383.575 394.075 384.328 389.815 384.609 387.804C385.518 381.304 383.641 346.743 383.641 346.743C383.641 346.743 373.44 340.516 369.226 343.727C365.012 346.936 362.418 350.074 369.209 385.242C369.724 387.909 368.2 394.866 367.647 402.392V402.392Z" fill="#56309E"/>
<path d="M367.647 402.392C367.4 405.753 366.945 411.131 367.124 415.026C370.67 411.451 377.659 403.909 382.669 398.997C383.575 394.075 384.328 389.815 384.609 387.804C385.518 381.304 383.641 346.743 383.641 346.743C383.641 346.743 373.44 340.516 369.226 343.727C365.012 346.936 362.418 350.074 369.209 385.242C369.724 387.909 368.2 394.866 367.647 402.392V402.392Z" fill="#4A2C76"/>
<path d="M374.422 347.446C374.422 347.446 373.507 382.043 372.075 388.457C370.644 394.872 363.173 424.236 363.173 424.236C363.173 424.236 356.171 424.843 352.511 423.35C352.511 423.35 352.744 409.751 353.985 401.761C355.145 394.296 357.226 387.472 356.928 384.775C352.994 349.214 355.834 346.276 360.294 343.384C364.755 340.491 374.422 347.446 374.422 347.446V347.446Z" fill="#56309E"/>
<path d="M360.579 350.475C360.579 350.475 363.006 355.113 358.342 358.657C358.342 358.657 356.319 359.974 356.009 358.262C355.699 356.55 356.057 357.146 355.569 354.745C355.081 352.344 355.705 349.861 357.156 348.78L360.579 350.475V350.475Z" fill="#FFCCB2"/>
<path d="M381.032 293.89C381.032 293.89 378.232 297.945 378.79 301.729L374.646 311.24L367.169 300.352C367.169 300.352 371.119 296.257 372.593 290.674L381.032 293.89V293.89Z" fill="#FFCCB2"/>
<path d="M382.26 297.35C382.26 297.35 372.062 297.77 371.876 291.939C371.691 286.107 368.935 282.228 376.563 281.716C382.836 281.294 384.921 283.786 385.48 285.718C386.039 287.65 386.04 297.037 382.26 297.35V297.35Z" fill="#FFCCB2"/>
<path d="M357.293 349.113C359.484 349.307 362.501 349.548 366.161 349.767C366.892 349.811 367.648 349.854 368.429 349.896C379.48 350.485 383.872 348.78 383.872 348.78C383.872 348.78 384.165 348.555 384.072 347.319C383.593 340.953 382.173 339.073 382.345 337.863C382.729 335.144 389.654 312.957 389.654 312.957C389.654 312.957 389.788 305.949 381.604 302.659C380.76 302.319 379.83 302.02 378.802 301.772C378.444 302.679 377.461 304.194 374.949 303.915C371.234 303.503 368.589 301.417 367.455 300.347C367.249 300.347 367.168 300.353 367.168 300.353C366.891 301.098 366.675 301.876 366.483 302.665C365.812 305.42 365.419 308.319 363.644 310.485C361.892 312.625 360.393 314.734 359.114 316.797C358.049 318.514 357.137 320.2 356.356 321.842C349.111 337.093 354.715 348.883 357.293 349.113V349.113Z" fill="#FF7042"/>
<path d="M357.293 349.113C359.484 349.307 362.501 349.548 366.161 349.767C367.228 332.634 359.899 316.178 359.899 316.178C359.623 316.362 359.361 316.569 359.114 316.797C357.837 317.978 356.948 319.732 356.356 321.842C354.172 329.611 356 342.233 357.293 349.113V349.113Z" fill="#FF4A1E"/>
<path d="M385.547 291.788C385.547 291.788 387.533 299.29 384.164 300.347C380.794 301.403 371.85 300.557 371.854 291.359C371.854 291.359 376.547 294.026 378.79 293.958C381.032 293.89 382.479 292.658 384.551 293.621C384.551 293.621 385.309 293.573 385.547 291.788Z" fill="#EAEAEA"/>
<path d="M367.169 300.352C367.169 300.352 360.04 300.505 356.274 305.173C353.388 308.75 350.337 327.942 350.337 330.832C350.337 333.722 353.586 349.671 355.405 351.403C355.405 351.403 356.583 351.693 358.154 351.403C359.822 351.096 360.804 350.178 360.804 350.178C360.804 350.178 359.899 332.422 359.899 330.756C359.899 328.345 367.813 313.585 367.813 313.585C367.813 313.585 371.918 306.561 367.169 300.352V300.352Z" fill="#FF7448"/>
<path d="M372.356 283.529C372.528 282.934 373.298 282.621 373.298 282.621C379.041 280.238 383.238 282.846 383.238 282.846C379.717 278.344 371.221 279.289 369.431 283.349C366.509 289.978 371.854 291.359 371.854 291.359C371.854 291.359 377.191 289.223 374.1 286.545C373.077 285.657 372.582 284.868 372.417 284.182C372.362 283.953 372.344 283.735 372.356 283.529V283.529Z" fill="#EAEAEA"/>
<path d="M148.276 411.136L147.03 416.126L145.377 422.745H140.212L139.905 416.404L139.667 411.514L148.276 411.136Z" fill="#FFCCB2"/>
<path d="M164.642 302.503C164.642 302.503 168.728 298.338 171.385 301.604C174.042 304.87 176.987 307.075 181.064 309.586C185.142 312.098 177.461 331.788 172.354 331.383C167.246 330.978 146.406 315.455 164.642 302.503Z" fill="#F2AC8C"/>
<path d="M144.293 300.522C145.313 299.796 154.706 296.724 163.863 299.745C173.021 302.766 156.77 311.181 156.77 311.181L151.503 311.397L144.293 300.522Z" fill="#4A2C76"/>
<path d="M150.271 294.834C150.271 294.834 150.089 300.196 149.369 302.599L143.665 314.31L165.136 309.45L160.015 302.711C160.015 302.711 158.469 295.52 159.28 292.86C160.091 290.2 150.271 294.834 150.271 294.834V294.834Z" fill="#FFCCB2"/>
<path d="M150.24 295.574C150.24 295.572 151.938 299.467 155.136 299.381C158.334 299.296 159.062 295.851 159.062 295.851L150.24 295.574V295.574Z" fill="#FFB792"/>
<path d="M148.331 292.422C148.331 292.422 147.299 287.511 146.578 286.024C145.857 284.536 145.257 277.901 153.244 277.558C153.244 277.558 156.307 277.901 157.989 276.928C157.989 276.928 157.989 277.901 157.568 278.244C157.568 278.244 160.331 277.615 162.493 279.903C164.655 282.191 161.052 290.2 161.232 292.088L148.331 292.422V292.422Z" fill="#4A2C76"/>
<path d="M154.77 297.877C152.453 297.838 148.188 294.899 148.188 291.259V285.58C148.188 284.251 149.161 283.164 150.349 283.164H159.19C160.379 283.164 161.352 284.251 161.352 285.58V290.938C161.352 294.754 157.428 297.922 154.77 297.877V297.877Z" fill="#FFCCB2"/>
<path d="M148.188 288.612C148.188 288.612 148.2 285.2 151.037 284.675C153.875 284.15 160.226 286.338 161.127 283.85C162.028 281.361 148.851 281.405 148.188 282.992C147.524 284.579 148.188 288.612 148.188 288.612Z" fill="#4A2C76"/>
<path d="M171.087 346.562L158.519 347.31C158.447 347.198 158.365 347.198 158.275 347.324L154.577 347.545L138.818 346.607C138.818 346.607 134.854 363.841 136.411 386.805C136.908 394.132 137.696 403.913 137.858 410.92H149.548C150.948 402.243 152.898 393.277 153.769 389.559C154.165 387.871 154.532 386.196 154.874 384.541C155.186 386.427 155.387 387.958 155.382 388.912C155.376 390.438 155.843 392.867 156.49 395.794C157.399 399.918 158.665 405.028 159.462 409.992H171.322C171.457 403.154 172.954 393.827 173.083 386.805C173.426 368.078 171.087 346.562 171.087 346.562V346.562Z" fill="#FF7042"/>
<path d="M137.232 355.439C137.232 355.439 141.734 360.636 153.967 359.886C166.199 359.136 172.035 357.108 172.035 357.108L137.232 355.439V355.439Z" fill="#FF4A1E"/>
<path d="M172.035 357.108C168.039 357.626 140.856 358.971 137.233 355.439C133.609 351.907 143.148 303.728 143.148 303.728C143.148 303.728 144.229 303.43 146.052 303.104C146.981 302.936 148.102 302.763 149.372 302.618C149.387 302.993 149.701 308.673 154.652 311.02C154.652 311.02 160.598 308.751 160.015 302.71C160.008 302.639 160 302.571 159.99 302.503C160.783 302.584 161.587 302.689 162.394 302.822C164.025 303.089 165.676 303.466 167.314 303.982C167.314 303.982 176.031 356.592 172.035 357.108V357.108Z" fill="#6139BC"/>
<path d="M137.461 332.234C137.3 332.435 138.384 333.917 139.913 335.824C143.058 339.739 148.09 345.438 148.09 345.438C148.022 347.37 147.739 348.616 147.739 348.616C140.828 345.505 136.155 342.596 133.058 340.26C128.703 336.974 127.454 334.817 127.454 334.817C134.437 306.683 143.395 303.752 143.395 303.752L146.319 320.707C146.319 320.707 137.951 331.625 137.461 332.234V332.234Z" fill="#6139BC"/>
<path d="M162.394 302.822L160.593 308.039L158.193 311.397L154.747 313.177L151.504 311.397L146.052 303.103C146.981 302.936 148.103 302.763 149.372 302.618C149.387 302.993 149.701 308.673 154.652 311.02C154.652 311.02 160.598 308.751 160.015 302.71C160.009 302.639 160 302.571 159.99 302.503C160.784 302.584 161.587 302.689 162.394 302.822V302.822Z" fill="#EAEAEA"/>
<path d="M148.09 345.439C148.088 345.494 148.087 345.547 148.083 345.601C148.068 345.957 148.046 346.29 148.018 346.592C147.845 346.821 147.653 347.036 147.445 347.237C147.127 347.543 146.783 347.8 146.433 348.017C146.259 347.937 146.084 347.855 145.912 347.774C139.993 344.982 135.875 342.385 133.058 340.26C134.845 339.736 137.349 338.539 139.913 335.823C143.058 339.739 148.09 345.439 148.09 345.439V345.439Z" fill="#FFCCB2"/>
<path d="M182.411 333.783C182.411 333.783 181.206 335.962 176.918 339.327C173.868 341.719 169.255 344.713 162.408 347.949C162.408 347.949 162.099 346.708 161.993 344.778C161.993 344.778 166.909 338.989 169.975 335.016C171.465 333.082 172.519 331.58 172.354 331.383C171.965 330.916 166.719 324.345 164.379 321.414C163.7 320.562 163.267 320.019 163.267 320.019L166.229 303.35C166.229 303.35 174.865 305.781 182.411 333.783V333.783Z" fill="#6139BC"/>
<path d="M176.918 339.327C174.135 341.508 170.051 344.191 164.157 347.104C164.011 347.175 163.863 347.248 163.714 347.321C162.961 346.455 162.504 345.424 162.226 344.505C162.324 344.389 162.452 344.235 162.608 344.052C164.02 342.374 167.567 338.134 169.975 335.016C172.591 337.684 175.12 338.835 176.918 339.327V339.327Z" fill="#FFCCB2"/>
<path d="M159.989 302.503C156.024 302.098 152.303 302.283 149.371 302.618C149.369 302.605 149.369 302.598 149.369 302.598C149.369 302.598 159.197 296.809 159.989 302.503V302.503Z" fill="#FFCCB2"/>
<path d="M150.133 318.878H149.931L149.782 309.854H150.292L150.133 318.878Z" fill="#4A2C76"/>
<path d="M149.911 318.643C149.727 318.908 149.314 319.78 149.588 319.872C149.862 319.964 150.343 319.97 150.473 319.847C150.601 319.724 150.258 318.145 149.911 318.643Z" fill="#FF7042"/>
<path d="M159.437 318.878H159.235L159.086 309.854H159.596L159.437 318.878Z" fill="#4A2C76"/>
<path d="M159.214 318.643C159.03 318.908 158.617 319.78 158.891 319.872C159.165 319.964 159.646 319.97 159.775 319.847C159.904 319.724 159.561 318.145 159.214 318.643V318.643Z" fill="#FF7042"/>
<path d="M151.503 311.397L143.148 303.728C143.148 303.728 141.267 302.456 144.24 300.555C147.214 298.653 151.503 311.397 151.503 311.397Z" fill="#4A2C76"/>
<path d="M158.191 311.397L166.546 303.728C166.546 303.728 168.427 302.456 165.454 300.555C162.481 298.653 158.191 311.397 158.191 311.397Z" fill="#4A2C76"/>
<path d="M168.678 348.055C167.05 348.186 165.693 347.798 164.645 346.906C164.468 346.756 164.307 346.595 164.157 346.427C163.331 345.508 162.867 344.351 162.607 343.375C162.309 342.26 162.276 341.383 162.276 341.365L162.269 341.14H148.775L148.783 341.38C148.836 342.762 148.602 343.948 148.084 344.924C147.827 345.413 147.499 345.848 147.102 346.23C146.734 346.583 146.328 346.867 145.912 347.097C144.106 348.094 142.096 348.055 142.071 348.055L141.821 348.047V353.478H168.941V348.034L168.678 348.055V348.055Z" fill="#4A2C76"/>
<path d="M172.354 331.383C172.354 331.383 164.832 321.981 170.786 319.244C173.15 318.157 176.478 331.059 174.694 332.273C172.91 333.486 169.974 335.016 169.974 335.016L172.354 331.383V331.383Z" fill="#4A2C76"/>
<path d="M138.328 329.156C138.328 329.156 140.941 317.351 138.648 318.567C136.354 319.782 132.956 330.382 134.74 331.596C136.524 332.81 139.46 334.339 139.46 334.339L138.328 329.156V329.156Z" fill="#4A2C76"/>
<path d="M171.299 331.356C167.864 327.294 166.581 320.698 166.756 313.891C166.887 308.781 167.623 304.168 167.671 304.007L170.488 306.097C170.477 306.136 168.871 308.932 168.747 313.905C168.633 318.453 168.407 321.916 171.106 329.833L171.299 331.356V331.356Z" fill="#F2AC8C"/>
<path d="M145.218 413.431L139.165 413.429C138.629 413.486 137.791 412.739 137.791 411.671C137.791 411.671 137.778 409.11 137.601 408.655C136.822 406.659 137.98 406.551 139.101 406.551H150.144C151.266 406.551 149.548 409.852 149.548 410.92L149.946 412.321C149.946 413.388 146.339 413.431 145.218 413.431V413.431Z" fill="#FF4A1E"/>
<path d="M145.376 422.745L147.03 416.127C143.265 417.361 140.674 416.674 139.904 416.404L140.212 422.745H140.212C140.212 422.745 138.89 426.005 138.53 426.807C138.228 427.478 138.179 429.281 138.171 429.845L146.401 429.848C146.414 429.293 146.448 427.508 146.397 426.692C146.337 425.72 145.377 422.746 145.376 422.745V422.745Z" fill="#4A2C76"/>
<path d="M160.868 411.136L162.114 416.127L163.767 422.745H168.931L169.239 416.405L169.477 411.514L160.868 411.136Z" fill="#FFCCB2"/>
<path d="M163.926 413.431L169.979 413.429C170.514 413.486 171.353 412.739 171.353 411.671C171.353 411.671 171.365 409.11 171.543 408.655C172.322 406.659 171.163 406.551 170.042 406.551H158.999C157.878 406.551 159.595 409.852 159.595 410.92L159.198 412.321C159.198 413.388 162.805 413.431 163.926 413.431V413.431Z" fill="#FF4A1E"/>
<path d="M170.603 426.807C170.243 426.006 168.922 422.746 168.921 422.745H168.931L169.239 416.404C168.469 416.673 165.878 417.361 162.113 416.127L163.766 422.745H163.757C163.757 422.745 162.796 425.72 162.736 426.692C162.685 427.51 162.72 429.306 162.732 429.854L170.962 429.857C170.955 429.307 170.907 427.483 170.603 426.807Z" fill="#4A2C76"/>
<path fill-rule="evenodd" clip-rule="evenodd" d="M60.1786 253.208L59.7533 276.269L56.9238 429.815L64.0772 429.818L63.6287 273.954L63.5676 253.208H60.1786Z" fill="url(#paint0_linear_17_2246)"/>
<path d="M63.6284 273.954C62.4933 274.491 61.1459 275.243 59.7529 276.269L60.1786 253.207H63.5674L63.6284 273.954Z" fill="#FF4A1E"/>
<path d="M79.6181 256.782H41.3792C40.2328 256.782 39.2949 255.889 39.2949 254.797V203.528C39.2949 202.436 40.2328 201.542 41.3792 201.542H79.6181C80.7645 201.542 81.7027 202.436 81.7027 203.528V254.797C81.7027 255.889 80.7645 256.782 79.6181 256.782Z" fill="#6139BC"/>
<path d="M51.0414 224.874C50.3839 224.874 49.851 224.366 49.851 223.74C49.851 223.114 50.3839 222.607 51.0414 222.607C51.6988 222.607 52.2316 223.114 52.2316 223.74C52.2316 224.366 51.6988 224.874 51.0414 224.874ZM51.4945 221.228C49.664 220.942 48.1042 222.428 48.4044 224.172C48.5861 225.227 49.4802 226.079 50.5884 226.252C52.4187 226.538 53.9787 225.052 53.6785 223.309C53.4965 222.253 52.6027 221.402 51.4945 221.228V221.228Z" fill="white"/>
<path d="M69.1776 224.86C68.3716 224.979 67.6854 224.325 67.8122 223.557C67.8909 223.08 68.3022 222.691 68.8035 222.619C69.6071 222.505 70.2869 223.155 70.1637 223.92C70.0868 224.396 69.6782 224.786 69.1776 224.86ZM69.445 221.229C67.6136 220.94 66.05 222.426 66.3508 224.172C66.5328 225.228 67.4268 226.08 68.5354 226.252C70.365 226.537 71.9221 225.055 71.6252 223.312C71.4449 222.257 70.553 221.404 69.445 221.229Z" fill="white"/>
<path d="M72.3732 216.576C72.3732 216.953 72.0515 217.259 71.6551 217.259H67.5086C67.1116 217.259 66.7902 216.953 66.7902 216.576V214.09C66.7902 213.712 67.1116 213.405 67.5086 213.405H71.6551C72.0515 213.405 72.3732 213.712 72.3732 214.09V216.576ZM65.4655 216.576C65.4655 216.953 65.1438 217.259 64.7474 217.259H60.5995C60.203 217.259 59.8813 216.953 59.8813 216.576V214.09C59.8813 213.712 60.203 213.405 60.5995 213.405H64.7474C65.1438 213.405 65.4655 213.712 65.4655 214.09V216.576ZM58.6007 216.576C58.6007 216.953 58.279 217.259 57.8823 217.259H53.7358C53.3391 217.259 53.0178 216.953 53.0178 216.576V214.09C53.0178 213.712 53.3391 213.405 53.7358 213.405H57.8823C58.279 213.405 58.6007 213.712 58.6007 214.09V216.576ZM51.7478 216.576C51.7478 216.953 51.4261 217.259 51.0298 217.259H48.0136C47.5466 217.259 47.2532 216.779 47.4846 216.393L48.8371 214.134C49.107 213.684 49.6085 213.405 50.1521 213.405H51.0286C51.4259 213.405 51.7478 213.712 51.7478 214.09V216.576V216.576ZM72.6787 212.562H49.5088C48.9437 212.562 48.4165 212.831 48.1044 213.28L45.6166 216.852C45.3953 217.17 45.2773 217.542 45.2773 217.923V222.417C45.2773 223.148 45.8996 223.74 46.6667 223.74C47.1907 223.74 47.633 223.395 47.767 222.913C48.1506 221.532 49.4712 220.515 51.0407 220.515C52.5734 220.515 53.8678 221.484 54.2854 222.814C54.4587 223.366 54.9984 223.74 55.6036 223.74H64.6122C65.1364 223.74 65.5792 223.394 65.7135 222.912C66.0972 221.532 67.4178 220.515 68.9868 220.515C70.532 220.515 71.8346 221.499 72.2415 222.846C72.4033 223.381 72.9304 223.74 73.5147 223.74H74.5107C75.1781 223.74 75.7193 223.225 75.7193 222.589V217.644C75.7193 217.41 75.6758 217.179 75.5907 216.96L74.2981 213.636C74.0476 212.99 73.4012 212.562 72.6787 212.562V212.562Z" fill="white"/>
<path d="M67.5421 429.643H53.4551L54.4629 411.057C54.5193 410.02 55.4181 409.206 56.5082 409.206H64.3623C65.5233 409.206 66.4806 410.073 66.5404 411.177L67.5421 429.643V429.643Z" fill="#FF4A1E"/>
<path d="M59.9524 429.643H53.4551L54.4713 410.904C54.5228 409.953 55.3476 409.206 56.3477 409.206H58.3735C60.0259 409.206 61.3325 410.54 61.2188 412.11L59.9524 429.643Z" fill="#FF7042"/>
<path d="M108.356 416.126C108.356 416.126 98.76 402.166 92.8334 404.841C86.9065 407.516 108.356 416.126 108.356 416.126Z" fill="#199793"/>
<path d="M111.037 413.431C111.037 413.431 110.472 403.349 107.368 403.753C104.264 404.156 111.037 413.431 111.037 413.431Z" fill="#199793"/>
<path d="M49.4231 237.306C49.9544 237.306 50.4095 237.408 50.7896 237.614C51.1696 237.818 51.4579 238.109 51.6532 238.487C51.8486 238.865 51.9464 239.309 51.9464 239.818C51.9464 240.195 51.8928 240.538 51.7855 240.845C51.6783 241.154 51.5187 241.421 51.3042 241.647C51.0898 241.872 50.8276 242.045 50.5155 242.165C50.2034 242.284 49.8472 242.344 49.4445 242.344C49.0442 242.344 48.6856 242.283 48.3699 242.159C48.053 242.037 47.7898 241.863 47.5777 241.64C47.3656 241.416 47.206 241.147 47.0976 240.832C46.9892 240.517 46.9355 240.177 46.9355 239.812C46.9355 239.437 46.9915 239.094 47.1047 238.781C47.2179 238.469 47.3811 238.204 47.5956 237.984C47.8088 237.764 48.0697 237.597 48.3771 237.481C48.6832 237.364 49.0323 237.306 49.4231 237.306V237.306ZM50.8956 239.812C50.8956 239.455 50.8348 239.146 50.7145 238.883C50.5929 238.622 50.4202 238.425 50.1962 238.29C49.9722 238.156 49.7137 238.089 49.4231 238.089C49.217 238.089 49.0252 238.126 48.8501 238.2C48.6737 238.275 48.5224 238.383 48.3961 238.525C48.2699 238.667 48.1698 238.848 48.0959 239.068C48.0233 239.29 47.9863 239.537 47.9863 239.812C47.9863 240.09 48.0233 240.339 48.0959 240.564C48.1698 240.787 48.2734 240.974 48.4068 241.121C48.5403 241.269 48.694 241.379 48.8667 241.451C49.0406 241.525 49.2301 241.561 49.4373 241.561C49.703 241.561 49.9461 241.498 50.1689 241.372C50.3904 241.246 50.5668 241.051 50.699 240.786C50.83 240.523 50.8956 240.197 50.8956 239.812V239.812ZM49.9008 236.801L49.5517 236.413L49.2027 236.801C49.1049 236.912 49.0394 236.979 49.0037 237.004C48.9692 237.028 48.9037 237.04 48.8084 237.04H48.5296C48.4343 237.04 48.3866 237.025 48.3866 236.994C48.3866 236.97 48.4224 236.915 48.4951 236.828L48.8822 236.386C48.9144 236.348 48.9513 236.305 48.993 236.255C49.0359 236.205 49.0716 236.17 49.1038 236.149C49.1347 236.127 49.1813 236.111 49.2408 236.099C49.3016 236.086 49.3718 236.08 49.4505 236.08H49.6459C49.7995 236.08 49.9044 236.099 49.9615 236.134C50.0188 236.169 50.1034 236.253 50.2141 236.386L50.6156 236.834C50.6835 236.919 50.7169 236.969 50.7169 236.984C50.7169 237.021 50.6644 237.04 50.5596 237.04H50.2952C50.2248 237.04 50.1701 237.031 50.1295 237.012C50.0878 236.994 50.0497 236.964 50.0128 236.925C49.9747 236.884 49.9377 236.843 49.9008 236.801V236.801ZM54.186 237.898L56.1779 240.772V237.871C56.1779 237.683 56.2208 237.542 56.3054 237.448C56.39 237.354 56.5044 237.306 56.6485 237.306C56.7963 237.306 56.9142 237.353 57 237.447C57.0858 237.541 57.1287 237.683 57.1287 237.871V241.703C57.1287 242.131 56.9428 242.344 56.5711 242.344C56.4782 242.344 56.3947 242.332 56.3197 242.306C56.2459 242.281 56.1756 242.24 56.1112 242.186C56.0457 242.13 55.9861 242.065 55.9302 241.99C55.8742 241.917 55.8182 241.841 55.7621 241.763L53.8191 238.926V241.779C53.8191 241.965 53.7738 242.106 53.6833 242.201C53.5916 242.297 53.4748 242.344 53.3331 242.344C53.1865 242.344 53.0686 242.297 52.9804 242.2C52.891 242.104 52.8469 241.963 52.8469 241.779V238.021C52.8469 237.861 52.866 237.736 52.903 237.645C52.9471 237.545 53.0209 237.464 53.1233 237.4C53.2258 237.338 53.3366 237.306 53.4545 237.306C53.5487 237.306 53.6285 237.321 53.694 237.349C53.7608 237.379 53.8191 237.417 53.8692 237.466C53.9191 237.515 53.9704 237.577 54.0228 237.656C54.0752 237.733 54.13 237.813 54.186 237.898V237.898ZM58.3069 241.743V237.904C58.3069 237.704 58.3545 237.556 58.4498 237.456C58.5451 237.356 58.6691 237.306 58.8204 237.306C58.9752 237.306 59.1015 237.355 59.198 237.454C59.2945 237.552 59.3434 237.702 59.3434 237.904V241.743C59.3434 241.945 59.2945 242.095 59.198 242.195C59.1015 242.295 58.9752 242.344 58.8204 242.344C58.6714 242.344 58.5488 242.295 58.4523 242.194C58.3558 242.093 58.3069 241.943 58.3069 241.743V241.743ZM62.6875 242.263H61.1232C60.8969 242.263 60.7361 242.215 60.6396 242.119C60.5431 242.022 60.4942 241.868 60.4942 241.658V237.993C60.4942 237.778 60.5443 237.624 60.6431 237.53C60.742 237.435 60.9016 237.388 61.1232 237.388H62.7816C63.0259 237.388 63.2379 237.402 63.4166 237.431C63.5965 237.46 63.7573 237.515 63.8991 237.598C64.0206 237.666 64.1266 237.753 64.2207 237.859C64.3137 237.964 64.3839 238.08 64.4328 238.207C64.4816 238.335 64.5067 238.469 64.5067 238.611C64.5067 239.099 64.2505 239.456 63.7382 239.682C64.4114 239.887 64.7473 240.283 64.7473 240.873C64.7473 241.145 64.6734 241.391 64.5269 241.609C64.3804 241.828 64.1827 241.989 63.9336 242.093C63.7776 242.155 63.5989 242.199 63.3963 242.224C63.1938 242.25 62.9567 242.263 62.6875 242.263V242.263ZM62.6101 240.098H61.5307V241.521H62.6446C63.3463 241.521 63.6965 241.28 63.6965 240.799C63.6965 240.553 63.606 240.374 63.4238 240.263C63.2427 240.153 62.971 240.098 62.6101 240.098V240.098ZM61.5307 238.13V239.39H62.4814C62.7399 239.39 62.9388 239.366 63.0795 239.319C63.2212 239.273 63.3284 239.184 63.4035 239.054C63.4618 238.961 63.4905 238.856 63.4905 238.742C63.4905 238.495 63.3987 238.332 63.214 238.251C63.0306 238.171 62.7495 238.13 62.373 238.13H61.5307ZM65.3764 240.247V237.904C65.3764 237.704 65.4241 237.556 65.5182 237.456C65.6123 237.356 65.7362 237.306 65.8899 237.306C66.0496 237.306 66.177 237.356 66.2711 237.456C66.3652 237.556 66.4128 237.706 66.4128 237.904V240.302C66.4128 240.574 66.445 240.802 66.5093 240.985C66.5725 241.168 66.6869 241.31 66.8489 241.411C67.0121 241.511 67.2397 241.561 67.5327 241.561C67.9378 241.561 68.2237 241.459 68.3917 241.254C68.5597 241.049 68.6431 240.738 68.6431 240.321V237.904C68.6431 237.703 68.6895 237.552 68.7825 237.454C68.8754 237.355 69.0005 237.306 69.1565 237.306C69.3114 237.306 69.4377 237.355 69.5342 237.454C69.6307 237.552 69.6795 237.703 69.6795 237.904V240.247C69.6795 240.629 69.6403 240.948 69.5628 241.202C69.4842 241.457 69.3376 241.681 69.1208 241.874C68.935 242.037 68.7182 242.156 68.4716 242.232C68.2249 242.307 67.9366 242.344 67.6066 242.344C67.2134 242.344 66.8752 242.304 66.5904 242.223C66.3069 242.142 66.0757 242.017 65.897 241.847C65.7171 241.678 65.5861 241.46 65.5015 241.196C65.4181 240.932 65.3764 240.615 65.3764 240.247V240.247ZM74.6892 240.801C74.6892 241.095 74.6093 241.36 74.4497 241.594C74.2913 241.829 74.0577 242.013 73.7503 242.146C73.443 242.279 73.0785 242.344 72.6579 242.344C72.1528 242.344 71.7358 242.254 71.4082 242.073C71.1759 241.943 70.9876 241.768 70.8423 241.55C70.6969 241.332 70.6243 241.12 70.6243 240.914C70.6243 240.794 70.6684 240.692 70.7554 240.606C70.8423 240.521 70.9531 240.479 71.0877 240.479C71.1973 240.479 71.2891 240.512 71.3641 240.579C71.4404 240.645 71.5047 240.743 71.5583 240.875C71.6227 241.029 71.6941 241.16 71.7691 241.263C71.8455 241.367 71.9514 241.454 72.0884 241.522C72.2266 241.589 72.4065 241.623 72.6305 241.623C72.9367 241.623 73.1869 241.555 73.3787 241.418C73.5704 241.282 73.6669 241.112 73.6669 240.908C73.6669 240.746 73.6158 240.614 73.5121 240.514C73.4084 240.413 73.2738 240.336 73.1094 240.283C72.9462 240.229 72.7258 240.172 72.4518 240.112C72.0849 240.031 71.7763 239.934 71.5297 239.825C71.2819 239.715 71.0854 239.565 70.94 239.376C70.7946 239.186 70.722 238.951 70.722 238.669C70.722 238.401 70.7982 238.163 70.9519 237.954C71.1056 237.746 71.3283 237.586 71.619 237.474C71.9098 237.362 72.2516 237.306 72.6448 237.306C72.9581 237.306 73.2298 237.343 73.4597 237.417C73.6884 237.492 73.879 237.591 74.0303 237.713C74.1804 237.836 74.2913 237.965 74.3615 238.1C74.4306 238.235 74.4664 238.368 74.4664 238.496C74.4664 238.613 74.4223 238.72 74.3353 238.814C74.2484 238.908 74.1388 238.955 74.0089 238.955C73.8897 238.955 73.8004 238.926 73.7384 238.871C73.6765 238.814 73.6098 238.721 73.5383 238.593C73.4442 238.409 73.3334 238.265 73.2023 238.162C73.0725 238.058 72.8628 238.007 72.5733 238.007C72.3065 238.007 72.0896 238.063 71.9264 238.175C71.762 238.288 71.6798 238.422 71.6798 238.579C71.6798 238.677 71.7072 238.761 71.7632 238.832C71.8192 238.903 71.8966 238.964 71.9943 239.015C72.0921 239.066 72.1909 239.106 72.291 239.135C72.391 239.164 72.5567 239.206 72.7865 239.261C73.0749 239.326 73.337 239.396 73.5704 239.475C73.804 239.552 74.0029 239.646 74.1673 239.757C74.3318 239.867 74.4592 240.008 74.551 240.177C74.6427 240.347 74.6892 240.555 74.6892 240.801V240.801Z" fill="white"/>
</g>
<defs>
<linearGradient id="paint0_linear_17_2246" x1="56.9199" y1="341.618" x2="64.0779" y2="341.618" gradientUnits="userSpaceOnUse">
<stop stop-color="#FED747"/>
<stop offset="1" stop-color="#F94E43"/>
</linearGradient>
<clipPath id="clip0_17_2246">
<rect width="640" height="430" fill="white"/>
</clipPath>
</defs>
</svg>
