<svg width="64" height="102" viewBox="0 0 64 102" fill="none" xmlns="http://www.w3.org/2000/svg">
<path d="M59.0963 46.259C59.0963 32.0765 46.9671 20.577 32.0018 20.577C17.0392 20.577 4.90723 32.0765 4.90723 46.259C4.90723 57.0347 11.9146 66.2556 21.8416 70.0654V82.0788H42.1619V70.0654C52.089 66.2556 59.0963 57.0347 59.0963 46.259V46.259Z" stroke="#83060E" stroke-width="2" stroke-miterlimit="10" stroke-linecap="round" stroke-linejoin="round"/>
<path d="M32.001 101C26.3885 101 21.8408 96.6875 21.8408 91.3696V89.1754H42.1612V91.3696C42.1612 96.6875 37.6114 101 32.001 101Z" stroke="#83060E" stroke-width="2" stroke-miterlimit="10" stroke-linecap="round" stroke-linejoin="round"/>
<path d="M13.8203 46.259C13.8203 36.7406 21.9593 29.0253 32.0019 29.0253" stroke="#83060E" stroke-width="2" stroke-miterlimit="10" stroke-linecap="round" stroke-linejoin="round"/>
<path d="M32.001 11.6894V1.00003" stroke="#83060E" stroke-width="2" stroke-miterlimit="10" stroke-linecap="round" stroke-linejoin="round"/>
<path d="M19.5281 13.7747L15.6709 3.72989" stroke="#83060E" stroke-width="2" stroke-miterlimit="10" stroke-linecap="round" stroke-linejoin="round"/>
<path d="M8.55767 19.7768L1.30957 11.5891" stroke="#83060E" stroke-width="2" stroke-miterlimit="10" stroke-linecap="round" stroke-linejoin="round"/>
<path d="M55.4443 19.7768L62.6924 11.5891" stroke="#83060E" stroke-width="2" stroke-miterlimit="10" stroke-linecap="round" stroke-linejoin="round"/>
<path d="M44.4746 13.7747L48.3318 3.72989" stroke="#83060E" stroke-width="2" stroke-miterlimit="10" stroke-linecap="round" stroke-linejoin="round"/>
</svg>
