<svg viewBox="0 0 409 189" fill="none" xmlns="http://www.w3.org/2000/svg">
<path d="M2.05327 97.5135C6.58818 104.437 15.875 107.527 24.4545 107.549C33.0342 107.571 38.5186 111.066 32.1658 122.11C29.4746 128.848 22.7378 137.51 18.6571 147.039C18.6723 147.049 18.6881 147.06 18.7043 147.075C24.2036 148.53 45.9432 159.725 62.028 164.579C62.5074 164.655 62.9554 164.734 63.3458 164.822C67.6323 165.782 69.1502 159.562 70.0201 151.337C70.6277 145.587 73.752 137.691 84.1742 135.25C94.5966 132.81 103.085 137.36 106.52 144.889C109.954 152.418 104.786 161.057 100.719 165.863C96.6525 170.669 98.3354 176.131 107.498 178.994C116.597 181.836 143.465 185.738 149.693 187.992C149.699 187.991 149.703 187.991 149.708 187.991C153.115 178.487 154.366 167.553 156.948 161.088C159.848 148.965 166.598 149.291 173.29 154.04C179.981 158.788 189.403 161.542 197.849 158.673C206.294 155.805 211.42 146.027 207.22 136.821C203.357 128.351 193.309 126.494 183.491 125.326C173.674 124.158 173.074 120.174 176.502 112.13C179.929 104.086 191.77 85.1889 193.906 77.6911L193.907 77.6906L193.906 77.6902C193.902 77.6432 193.846 77.6337 193.766 77.642C187.538 75.3882 160.669 71.4859 151.571 68.644C142.408 65.7818 140.725 60.3189 144.792 55.5132C148.859 50.7072 154.027 42.068 150.592 34.539C147.158 27.0103 138.669 22.46 128.247 24.9008C117.825 27.3417 114.701 35.238 114.093 40.9869C113.223 49.2129 111.705 55.4321 107.419 54.4723C107.028 54.3849 106.58 54.3049 106.101 54.2295C90.0158 49.3754 68.2764 38.1804 62.7771 36.7256C62.7211 36.675 62.671 36.6513 62.6346 36.6857L62.6334 36.6854L62.6332 36.6859C58.9705 43.7068 54.765 64.9891 51.7192 73.1521C48.6735 81.3151 44.0485 84.5699 36.908 79.5388C29.1601 74.0799 20.7784 72.1394 10.1208 75.2538C0.620592 78.0304 -2.48163 90.5904 2.05327 97.5135Z" fill="#83060E"/>
<path d="M249.664 176.86C246.761 169.012 250.461 160.566 256.345 154.713C262.23 148.861 262.962 142.724 248.983 139.448C240.334 137.476 229.099 135.268 218 131.488C218.002 131.471 218.003 131.453 218.002 131.432C220.519 126.689 225.737 104.194 232.58 89.9101C232.845 89.532 233.083 89.1723 233.276 88.8464C235.39 85.2694 241.845 88.5156 249.6 93.5832C255.019 97.125 264.039 100.432 273.333 95.0198C282.627 89.6075 284.509 80.7009 280.322 73.1841C276.134 65.6675 265.062 63.2402 258.083 62.7004C251.105 62.1613 247.51 57.2576 251.324 49.0536C255.111 40.9079 270.202 19.9408 272.526 14.1525C272.53 14.1493 272.533 14.1464 272.537 14.1432C283.149 18.3641 293.522 25.0351 300.924 27.7265C313.466 34.0938 317.826 29.2764 318.299 21.4561C318.771 13.636 322.859 5.33106 331.165 1.55787C339.471 -2.21508 351.504 1.02455 356.624 10.2158C361.334 18.672 356.037 26.7862 350.298 34.27C344.56 41.7536 347.614 44.903 356.97 48.1055C366.326 51.3077 390.914 56.2516 398.906 59.9569L398.907 59.9571C398.907 59.9576 398.906 59.9581 398.906 59.9581C398.945 59.9931 398.915 60.0377 398.853 60.086C396.528 65.8743 381.437 86.8413 377.65 94.9873C373.836 103.191 377.431 108.095 384.41 108.634C391.389 109.174 402.461 111.601 406.648 119.118C410.835 126.634 408.953 135.541 399.659 140.953C390.365 146.365 381.346 143.059 375.926 139.517C368.171 134.449 361.716 131.203 359.602 134.78C359.41 135.106 359.171 135.465 358.907 135.844C352.063 150.128 346.846 172.622 344.328 177.365C344.333 177.438 344.319 177.488 344.264 177.489L344.264 177.49L344.263 177.49C335.635 175.152 314.226 163.371 305.029 159.827C295.832 156.284 289.818 157.191 289.282 165.511C288.701 174.539 284.622 181.577 274.58 186.686C265.628 191.24 252.567 184.709 249.664 176.86Z" fill="#83060E"/>
</svg>
