<svg width="103" height="102" viewBox="0 0 103 102" fill="none" xmlns="http://www.w3.org/2000/svg">
<path d="M69.0969 89.3718C53.5964 104.876 28.4624 104.876 12.9589 89.3718C-2.54228 73.872 -2.54228 48.7388 12.9589 33.2358C28.4624 17.7351 53.5964 17.7351 69.0969 33.2358C84.5981 48.7388 84.5981 73.872 69.0969 89.3718Z" stroke="#fff" stroke-width="2" stroke-miterlimit="10" stroke-linecap="round" stroke-linejoin="round"/>
<path d="M60.2773 80.5533C49.6454 91.1842 32.4105 91.1842 21.7793 80.5533C11.1504 69.9217 11.1504 52.6874 21.7793 42.0566C32.4105 31.4281 49.6454 31.4281 60.2773 42.0566C70.9062 52.6874 70.9062 69.9217 60.2773 80.5533Z" stroke="#fff" stroke-width="2" stroke-miterlimit="10" stroke-linecap="round" stroke-linejoin="round"/>
<path d="M51.0154 71.2911C45.5012 76.8053 36.5566 76.8053 31.0423 71.2911C25.525 65.7771 25.525 56.8336 31.0423 51.3187C36.5566 45.8016 45.5012 45.8016 51.0154 51.3187C56.5297 56.8336 56.5297 65.7771 51.0154 71.2911Z" stroke="#fff" stroke-width="2" stroke-miterlimit="10" stroke-linecap="round" stroke-linejoin="round"/>
<path d="M41.0293 61.3053L89.3693 12.964" stroke="#fff" stroke-width="2" stroke-miterlimit="10" stroke-linecap="round" stroke-linejoin="round"/>
<path d="M41.0293 61.3053L89.3693 12.964" stroke="#fff" stroke-width="2" stroke-miterlimit="10" stroke-linecap="round" stroke-linejoin="round"/>
<path d="M86.6947 28.1005L75.0805 27.2542L74.2334 15.6404L80.4313 9.44584L88.8743 1L89.7184 12.6168L101.333 13.4632L92.8895 21.9059L86.6947 28.1005Z" stroke="#fff" stroke-width="2" stroke-miterlimit="10" stroke-linecap="round" stroke-linejoin="round"/>
</svg>
